<svg xmlns="http://www.w3.org/2000/svg" viewBox="0 0 256 256" style=""><path width="256" height="256" fill="none" d="M0 0 L256 0 L256 256 L0 256 Z" class="OCJPHUpq_0"></path><path opacity="0.2" d="M40,64A24,24 0,1,1 88,64A24,24 0,1,1 40,64" class="OCJPHUpq_1"></path><path opacity="0.2" d="M168,64A24,24 0,1,1 216,64A24,24 0,1,1 168,64" class="OCJPHUpq_2"></path><path d="M64,88v24a16,16,0,0,0,16,16h96a16,16,0,0,0,16-16V88" fill="none" stroke="currentColor" stroke-linecap="round" stroke-linejoin="round" stroke-width="16" class="OCJPHUpq_3"></path><path fill="none" stroke="currentColor" stroke-linecap="round" stroke-linejoin="round" stroke-width="16" d="M128,128L128,168" class="OCJPHUpq_4"></path><path fill="none" stroke="currentColor" stroke-linecap="round" stroke-linejoin="round" stroke-width="16" d="M40,64A24,24 0,1,1 88,64A24,24 0,1,1 40,64" class="OCJPHUpq_5"></path><path fill="none" stroke="currentColor" stroke-linecap="round" stroke-linejoin="round" stroke-width="16" d="M104,192A24,24 0,1,1 152,192A24,24 0,1,1 104,192" class="OCJPHUpq_6"></path><path fill="none" stroke="currentColor" stroke-linecap="round" stroke-linejoin="round" stroke-width="16" d="M168,64A24,24 0,1,1 216,64A24,24 0,1,1 168,64" class="OCJPHUpq_7"></path><style data-made-with="vivus-instant">.OCJPHUpq_0{stroke-dasharray:1024 1026;stroke-dashoffset:1025;animation:OCJPHUpq_draw_0 7200ms linear 0ms infinite,OCJPHUpq_fade 7200ms linear 0ms infinite;}.OCJPHUpq_1{stroke-dasharray:151 153;stroke-dashoffset:152;animation:OCJPHUpq_draw_1 7200ms linear 0ms infinite,OCJPHUpq_fade 7200ms linear 0ms infinite;}.OCJPHUpq_2{stroke-dasharray:151 153;stroke-dashoffset:152;animation:OCJPHUpq_draw_2 7200ms linear 0ms infinite,OCJPHUpq_fade 7200ms linear 0ms infinite;}.OCJPHUpq_3{stroke-dasharray:195 197;stroke-dashoffset:196;animation:OCJPHUpq_draw_3 7200ms linear 0ms infinite,OCJPHUpq_fade 7200ms linear 0ms infinite;}.OCJPHUpq_4{stroke-dasharray:40 42;stroke-dashoffset:41;animation:OCJPHUpq_draw_4 7200ms linear 0ms infinite,OCJPHUpq_fade 7200ms linear 0ms infinite;}.OCJPHUpq_5{stroke-dasharray:151 153;stroke-dashoffset:152;animation:OCJPHUpq_draw_5 7200ms linear 0ms infinite,OCJPHUpq_fade 7200ms linear 0ms infinite;}.OCJPHUpq_6{stroke-dasharray:151 153;stroke-dashoffset:152;animation:OCJPHUpq_draw_6 7200ms linear 0ms infinite,OCJPHUpq_fade 7200ms linear 0ms infinite;}.OCJPHUpq_7{stroke-dasharray:151 153;stroke-dashoffset:152;animation:OCJPHUpq_draw_7 7200ms linear 0ms infinite,OCJPHUpq_fade 7200ms linear 0ms infinite;}@keyframes OCJPHUpq_draw{100%{stroke-dashoffset:0;}}@keyframes OCJPHUpq_fade{0%{stroke-opacity:1;}94.44444444444444%{stroke-opacity:1;}100%{stroke-opacity:0;}}@keyframes OCJPHUpq_draw_0{11.11111111111111%{stroke-dashoffset: 1025}52.5%{ stroke-dashoffset: 0;}100%{ stroke-dashoffset: 0;}}@keyframes OCJPHUpq_draw_1{11.150793650793652%{stroke-dashoffset: 152}52.539682539682545%{ stroke-dashoffset: 0;}100%{ stroke-dashoffset: 0;}}@keyframes OCJPHUpq_draw_2{11.19047619047619%{stroke-dashoffset: 152}52.57936507936508%{ stroke-dashoffset: 0;}100%{ stroke-dashoffset: 0;}}@keyframes OCJPHUpq_draw_3{11.230158730158731%{stroke-dashoffset: 196}52.61904761904762%{ stroke-dashoffset: 0;}100%{ stroke-dashoffset: 0;}}@keyframes OCJPHUpq_draw_4{11.26984126984127%{stroke-dashoffset: 41}52.65873015873016%{ stroke-dashoffset: 0;}100%{ stroke-dashoffset: 0;}}@keyframes OCJPHUpq_draw_5{11.30952380952381%{stroke-dashoffset: 152}52.6984126984127%{ stroke-dashoffset: 0;}100%{ stroke-dashoffset: 0;}}@keyframes OCJPHUpq_draw_6{11.34920634920635%{stroke-dashoffset: 152}52.73809523809524%{ stroke-dashoffset: 0;}100%{ stroke-dashoffset: 0;}}@keyframes OCJPHUpq_draw_7{11.38888888888889%{stroke-dashoffset: 152}52.77777777777778%{ stroke-dashoffset: 0;}100%{ stroke-dashoffset: 0;}}</style></svg>