<svg xmlns="http://www.w3.org/2000/svg" viewBox="0 0 256 256" style=""><path width="256" height="256" fill="none" d="M0 0 L256 0 L256 256 L0 256 Z" class="udrvoqgA_0"></path><path transform="translate(-53.02 128) rotate(-45)" opacity="0.2" d="M83.87,128A44.13,116.33 0,1,1 172.13,128A44.13,116.33 0,1,1 83.87,128" class="udrvoqgA_1"></path><path transform="translate(-53.02 128) rotate(-45)" fill="none" stroke="currentColor" stroke-linecap="round" stroke-linejoin="round" stroke-width="16" d="M83.87,128A44.13,116.33 0,1,1 172.13,128A44.13,116.33 0,1,1 83.87,128" class="udrvoqgA_2"></path><path transform="translate(-53.02 128) rotate(-45)" fill="none" stroke="currentColor" stroke-linecap="round" stroke-linejoin="round" stroke-width="16" d="M11.670000000000002,128A116.33,44.13 0,1,1 244.32999999999998,128A116.33,44.13 0,1,1 11.670000000000002,128" class="udrvoqgA_3"></path><path d="M116,128A12,12 0,1,1 140,128A12,12 0,1,1 116,128" class="udrvoqgA_4"></path><style data-made-with="vivus-instant">.udrvoqgA_0{stroke-dasharray:1024 1026;stroke-dashoffset:1025;animation:udrvoqgA_draw_0 7200ms linear 0ms infinite,udrvoqgA_fade 7200ms linear 0ms infinite;}.udrvoqgA_1{stroke-dasharray:531 533;stroke-dashoffset:532;animation:udrvoqgA_draw_1 7200ms linear 0ms infinite,udrvoqgA_fade 7200ms linear 0ms infinite;}.udrvoqgA_2{stroke-dasharray:531 533;stroke-dashoffset:532;animation:udrvoqgA_draw_2 7200ms linear 0ms infinite,udrvoqgA_fade 7200ms linear 0ms infinite;}.udrvoqgA_3{stroke-dasharray:531 533;stroke-dashoffset:532;animation:udrvoqgA_draw_3 7200ms linear 0ms infinite,udrvoqgA_fade 7200ms linear 0ms infinite;}.udrvoqgA_4{stroke-dasharray:76 78;stroke-dashoffset:77;animation:udrvoqgA_draw_4 7200ms linear 0ms infinite,udrvoqgA_fade 7200ms linear 0ms infinite;}@keyframes udrvoqgA_draw{100%{stroke-dashoffset:0;}}@keyframes udrvoqgA_fade{0%{stroke-opacity:1;}94.44444444444444%{stroke-opacity:1;}100%{stroke-opacity:0;}}@keyframes udrvoqgA_draw_0{11.11111111111111%{stroke-dashoffset: 1025}52.5%{ stroke-dashoffset: 0;}100%{ stroke-dashoffset: 0;}}@keyframes udrvoqgA_draw_1{11.180555555555555%{stroke-dashoffset: 532}52.56944444444444%{ stroke-dashoffset: 0;}100%{ stroke-dashoffset: 0;}}@keyframes udrvoqgA_draw_2{11.25%{stroke-dashoffset: 532}52.63888888888889%{ stroke-dashoffset: 0;}100%{ stroke-dashoffset: 0;}}@keyframes udrvoqgA_draw_3{11.319444444444445%{stroke-dashoffset: 532}52.708333333333336%{ stroke-dashoffset: 0;}100%{ stroke-dashoffset: 0;}}@keyframes udrvoqgA_draw_4{11.38888888888889%{stroke-dashoffset: 77}52.77777777777778%{ stroke-dashoffset: 0;}100%{ stroke-dashoffset: 0;}}</style></svg>