<svg xmlns="http://www.w3.org/2000/svg" viewBox="0 0 256 256" style=""><path width="256" height="256" fill="none" d="M0 0 L256 0 L256 256 L0 256 Z" class="VGaSYKig_0"></path><path width="64" height="112" opacity="0.2" d="M48 72 L112 72 L112 184 L48 184 Z" class="VGaSYKig_1"></path><path width="64" height="176" fill="none" stroke="currentColor" stroke-linecap="round" stroke-linejoin="round" stroke-width="16" d="M 56,40 L 104,40 A 8,8,0,0,1,112,48 L 112,208 A 8,8,0,0,1,104,216 L 56,216 A 8,8,0,0,1,48,208 L 48,48 A 8,8,0,0,1,56,40" class="VGaSYKig_2"></path><path d="M217.67,205.77l-46.81,10a8,8,0,0,1-9.5-6.21L128.18,51.8a8.07,8.07,0,0,1,6.15-9.57l46.81-10a8,8,0,0,1,9.5,6.21L223.82,196.2A8.07,8.07,0,0,1,217.67,205.77Z" fill="none" stroke="currentColor" stroke-linecap="round" stroke-linejoin="round" stroke-width="16" class="VGaSYKig_3"></path><path fill="none" stroke="currentColor" stroke-linecap="round" stroke-linejoin="round" stroke-width="16" d="M48,72L112,72" class="VGaSYKig_4"></path><path fill="none" stroke="currentColor" stroke-linecap="round" stroke-linejoin="round" stroke-width="16" d="M48,184L112,184" class="VGaSYKig_5"></path><path fill="none" stroke="currentColor" stroke-linecap="round" stroke-linejoin="round" stroke-width="16" d="M133.16,75.48L195.61,62.06" class="VGaSYKig_6"></path><path fill="none" stroke="currentColor" stroke-linecap="round" stroke-linejoin="round" stroke-width="16" d="M139.79,107.04L202.25,93.62" class="VGaSYKig_7"></path><path fill="none" stroke="currentColor" stroke-linecap="round" stroke-linejoin="round" stroke-width="16" d="M156.39,185.94L218.84,172.52" class="VGaSYKig_8"></path><path d="M139.79,107l62.46-13.42L190.64,38.39a8,8,0,0,0-9.5-6.21l-46.81,10a8.07,8.07,0,0,0-6.15,9.57Z" opacity="0.2" class="VGaSYKig_9"></path><style data-made-with="vivus-instant">.VGaSYKig_0{stroke-dasharray:1024 1026;stroke-dashoffset:1025;animation:VGaSYKig_draw_0 7200ms linear 0ms infinite,VGaSYKig_fade 7200ms linear 0ms infinite;}.VGaSYKig_1{stroke-dasharray:352 354;stroke-dashoffset:353;animation:VGaSYKig_draw_1 7200ms linear 0ms infinite,VGaSYKig_fade 7200ms linear 0ms infinite;}.VGaSYKig_2{stroke-dasharray:467 469;stroke-dashoffset:468;animation:VGaSYKig_draw_2 7200ms linear 0ms infinite,VGaSYKig_fade 7200ms linear 0ms infinite;}.VGaSYKig_3{stroke-dasharray:469 471;stroke-dashoffset:470;animation:VGaSYKig_draw_3 7200ms linear 0ms infinite,VGaSYKig_fade 7200ms linear 0ms infinite;}.VGaSYKig_4{stroke-dasharray:64 66;stroke-dashoffset:65;animation:VGaSYKig_draw_4 7200ms linear 0ms infinite,VGaSYKig_fade 7200ms linear 0ms infinite;}.VGaSYKig_5{stroke-dasharray:64 66;stroke-dashoffset:65;animation:VGaSYKig_draw_5 7200ms linear 0ms infinite,VGaSYKig_fade 7200ms linear 0ms infinite;}.VGaSYKig_6{stroke-dasharray:64 66;stroke-dashoffset:65;animation:VGaSYKig_draw_6 7200ms linear 0ms infinite,VGaSYKig_fade 7200ms linear 0ms infinite;}.VGaSYKig_7{stroke-dasharray:64 66;stroke-dashoffset:65;animation:VGaSYKig_draw_7 7200ms linear 0ms infinite,VGaSYKig_fade 7200ms linear 0ms infinite;}.VGaSYKig_8{stroke-dasharray:64 66;stroke-dashoffset:65;animation:VGaSYKig_draw_8 7200ms linear 0ms infinite,VGaSYKig_fade 7200ms linear 0ms infinite;}.VGaSYKig_9{stroke-dasharray:250 252;stroke-dashoffset:251;animation:VGaSYKig_draw_9 7200ms linear 0ms infinite,VGaSYKig_fade 7200ms linear 0ms infinite;}@keyframes VGaSYKig_draw{100%{stroke-dashoffset:0;}}@keyframes VGaSYKig_fade{0%{stroke-opacity:1;}94.44444444444444%{stroke-opacity:1;}100%{stroke-opacity:0;}}@keyframes VGaSYKig_draw_0{11.11111111111111%{stroke-dashoffset: 1025}52.5%{ stroke-dashoffset: 0;}100%{ stroke-dashoffset: 0;}}@keyframes VGaSYKig_draw_1{11.141975308641975%{stroke-dashoffset: 353}52.53086419753087%{ stroke-dashoffset: 0;}100%{ stroke-dashoffset: 0;}}@keyframes VGaSYKig_draw_2{11.17283950617284%{stroke-dashoffset: 468}52.56172839506172%{ stroke-dashoffset: 0;}100%{ stroke-dashoffset: 0;}}@keyframes VGaSYKig_draw_3{11.203703703703702%{stroke-dashoffset: 470}52.59259259259259%{ stroke-dashoffset: 0;}100%{ stroke-dashoffset: 0;}}@keyframes VGaSYKig_draw_4{11.234567901234568%{stroke-dashoffset: 65}52.623456790123456%{ stroke-dashoffset: 0;}100%{ stroke-dashoffset: 0;}}@keyframes VGaSYKig_draw_5{11.265432098765432%{stroke-dashoffset: 65}52.65432098765432%{ stroke-dashoffset: 0;}100%{ stroke-dashoffset: 0;}}@keyframes VGaSYKig_draw_6{11.296296296296298%{stroke-dashoffset: 65}52.68518518518519%{ stroke-dashoffset: 0;}100%{ stroke-dashoffset: 0;}}@keyframes VGaSYKig_draw_7{11.32716049382716%{stroke-dashoffset: 65}52.716049382716044%{ stroke-dashoffset: 0;}100%{ stroke-dashoffset: 0;}}@keyframes VGaSYKig_draw_8{11.358024691358025%{stroke-dashoffset: 65}52.74691358024691%{ stroke-dashoffset: 0;}100%{ stroke-dashoffset: 0;}}@keyframes VGaSYKig_draw_9{11.38888888888889%{stroke-dashoffset: 251}52.77777777777778%{ stroke-dashoffset: 0;}100%{ stroke-dashoffset: 0;}}</style></svg>