<svg xmlns="http://www.w3.org/2000/svg" viewBox="0 0 256 256" style=""><path width="256" height="256" fill="none" d="M0 0 L256 0 L256 256 L0 256 Z" class="lQVXonJl_0"></path><path d="M160,80a32,32,0,0,0-32,32A32,32,0,0,0,96,80H24V200H96a32,32,0,0,1,32,32,32,32,0,0,1,32-32h72V80Z" opacity="0.3" class="lQVXonJl_1"></path><path d="M128,112a32,32,0,0,1,32-32h72V200H160a32,32,0,0,0-32,32" fill="none" stroke="currentColor" stroke-linecap="round" stroke-linejoin="round" stroke-width="16" class="lQVXonJl_2"></path><path d="M24,200H96a32,32,0,0,1,32,32V112A32,32,0,0,0,96,80H24Z" fill="none" stroke="currentColor" stroke-linecap="round" stroke-linejoin="round" stroke-width="16" class="lQVXonJl_3"></path><path d="M96,48a40,40,0,0,1,64,0" fill="none" stroke="currentColor" stroke-linecap="round" stroke-linejoin="round" stroke-width="16" class="lQVXonJl_4"></path><style data-made-with="vivus-instant">.lQVXonJl_0{stroke-dasharray:1024 1026;stroke-dashoffset:1025;animation:lQVXonJl_draw_0 7200ms linear 0ms infinite,lQVXonJl_fade 7200ms linear 0ms infinite;}.lQVXonJl_1{stroke-dasharray:730 732;stroke-dashoffset:731;animation:lQVXonJl_draw_1 7200ms linear 0ms infinite,lQVXonJl_fade 7200ms linear 0ms infinite;}.lQVXonJl_2{stroke-dasharray:365 367;stroke-dashoffset:366;animation:lQVXonJl_draw_2 7200ms linear 0ms infinite,lQVXonJl_fade 7200ms linear 0ms infinite;}.lQVXonJl_3{stroke-dasharray:485 487;stroke-dashoffset:486;animation:lQVXonJl_draw_3 7200ms linear 0ms infinite,lQVXonJl_fade 7200ms linear 0ms infinite;}.lQVXonJl_4{stroke-dasharray:75 77;stroke-dashoffset:76;animation:lQVXonJl_draw_4 7200ms linear 0ms infinite,lQVXonJl_fade 7200ms linear 0ms infinite;}@keyframes lQVXonJl_draw{100%{stroke-dashoffset:0;}}@keyframes lQVXonJl_fade{0%{stroke-opacity:1;}94.44444444444444%{stroke-opacity:1;}100%{stroke-opacity:0;}}@keyframes lQVXonJl_draw_0{11.11111111111111%{stroke-dashoffset: 1025}52.5%{ stroke-dashoffset: 0;}100%{ stroke-dashoffset: 0;}}@keyframes lQVXonJl_draw_1{11.180555555555555%{stroke-dashoffset: 731}52.56944444444444%{ stroke-dashoffset: 0;}100%{ stroke-dashoffset: 0;}}@keyframes lQVXonJl_draw_2{11.25%{stroke-dashoffset: 366}52.63888888888889%{ stroke-dashoffset: 0;}100%{ stroke-dashoffset: 0;}}@keyframes lQVXonJl_draw_3{11.319444444444445%{stroke-dashoffset: 486}52.708333333333336%{ stroke-dashoffset: 0;}100%{ stroke-dashoffset: 0;}}@keyframes lQVXonJl_draw_4{11.38888888888889%{stroke-dashoffset: 76}52.77777777777778%{ stroke-dashoffset: 0;}100%{ stroke-dashoffset: 0;}}</style></svg>