<svg xmlns="http://www.w3.org/2000/svg" viewBox="0 0 256 256" style=""><path width="256" height="256" fill="none" d="M0 0 L256 0 L256 256 L0 256 Z" class="lfoBNCXF_0"></path><path d="M40,88H216V48a8,8,0,0,0-8-8H48a8,8,0,0,0-8,8Z" opacity="0.2" class="lfoBNCXF_1"></path><path width="176" height="176" fill="none" stroke="currentColor" stroke-linecap="round" stroke-linejoin="round" stroke-width="16" d="M 48,40 L 208,40 A 8,8,0,0,1,216,48 L 216,208 A 8,8,0,0,1,208,216 L 48,216 A 8,8,0,0,1,40,208 L 40,48 A 8,8,0,0,1,48,40" class="lfoBNCXF_2"></path><path fill="none" stroke="currentColor" stroke-linecap="round" stroke-linejoin="round" stroke-width="16" d="M176,24L176,56" class="lfoBNCXF_3"></path><path fill="none" stroke="currentColor" stroke-linecap="round" stroke-linejoin="round" stroke-width="16" d="M80,24L80,56" class="lfoBNCXF_4"></path><path fill="none" stroke="currentColor" stroke-linecap="round" stroke-linejoin="round" stroke-width="16" d="M40,88L216,88" class="lfoBNCXF_5"></path><path fill="none" stroke="currentColor" stroke-linecap="round" stroke-linejoin="round" stroke-width="16" d="M88,128L104,120L104,184" class="lfoBNCXF_6"></path><path d="M138.14,128a16,16,0,1,1,26.64,17.63L136,184h32" fill="none" stroke="currentColor" stroke-linecap="round" stroke-linejoin="round" stroke-width="16" class="lfoBNCXF_7"></path><style data-made-with="vivus-instant">.lfoBNCXF_0{stroke-dasharray:1024 1026;stroke-dashoffset:1025;animation:lfoBNCXF_draw_0 7200ms linear 0ms infinite,lfoBNCXF_fade 7200ms linear 0ms infinite;}.lfoBNCXF_1{stroke-dasharray:442 444;stroke-dashoffset:443;animation:lfoBNCXF_draw_1 7200ms linear 0ms infinite,lfoBNCXF_fade 7200ms linear 0ms infinite;}.lfoBNCXF_2{stroke-dasharray:691 693;stroke-dashoffset:692;animation:lfoBNCXF_draw_2 7200ms linear 0ms infinite,lfoBNCXF_fade 7200ms linear 0ms infinite;}.lfoBNCXF_3{stroke-dasharray:32 34;stroke-dashoffset:33;animation:lfoBNCXF_draw_3 7200ms linear 0ms infinite,lfoBNCXF_fade 7200ms linear 0ms infinite;}.lfoBNCXF_4{stroke-dasharray:32 34;stroke-dashoffset:33;animation:lfoBNCXF_draw_4 7200ms linear 0ms infinite,lfoBNCXF_fade 7200ms linear 0ms infinite;}.lfoBNCXF_5{stroke-dasharray:176 178;stroke-dashoffset:177;animation:lfoBNCXF_draw_5 7200ms linear 0ms infinite,lfoBNCXF_fade 7200ms linear 0ms infinite;}.lfoBNCXF_6{stroke-dasharray:82 84;stroke-dashoffset:83;animation:lfoBNCXF_draw_6 7200ms linear 0ms infinite,lfoBNCXF_fade 7200ms linear 0ms infinite;}.lfoBNCXF_7{stroke-dasharray:133 135;stroke-dashoffset:134;animation:lfoBNCXF_draw_7 7200ms linear 0ms infinite,lfoBNCXF_fade 7200ms linear 0ms infinite;}@keyframes lfoBNCXF_draw{100%{stroke-dashoffset:0;}}@keyframes lfoBNCXF_fade{0%{stroke-opacity:1;}94.44444444444444%{stroke-opacity:1;}100%{stroke-opacity:0;}}@keyframes lfoBNCXF_draw_0{11.11111111111111%{stroke-dashoffset: 1025}52.5%{ stroke-dashoffset: 0;}100%{ stroke-dashoffset: 0;}}@keyframes lfoBNCXF_draw_1{11.150793650793652%{stroke-dashoffset: 443}52.539682539682545%{ stroke-dashoffset: 0;}100%{ stroke-dashoffset: 0;}}@keyframes lfoBNCXF_draw_2{11.19047619047619%{stroke-dashoffset: 692}52.57936507936508%{ stroke-dashoffset: 0;}100%{ stroke-dashoffset: 0;}}@keyframes lfoBNCXF_draw_3{11.230158730158731%{stroke-dashoffset: 33}52.61904761904762%{ stroke-dashoffset: 0;}100%{ stroke-dashoffset: 0;}}@keyframes lfoBNCXF_draw_4{11.26984126984127%{stroke-dashoffset: 33}52.65873015873016%{ stroke-dashoffset: 0;}100%{ stroke-dashoffset: 0;}}@keyframes lfoBNCXF_draw_5{11.30952380952381%{stroke-dashoffset: 177}52.6984126984127%{ stroke-dashoffset: 0;}100%{ stroke-dashoffset: 0;}}@keyframes lfoBNCXF_draw_6{11.34920634920635%{stroke-dashoffset: 83}52.73809523809524%{ stroke-dashoffset: 0;}100%{ stroke-dashoffset: 0;}}@keyframes lfoBNCXF_draw_7{11.38888888888889%{stroke-dashoffset: 134}52.77777777777778%{ stroke-dashoffset: 0;}100%{ stroke-dashoffset: 0;}}</style></svg>