<svg xmlns="http://www.w3.org/2000/svg" viewBox="0 0 256 256" style=""><path width="256" height="256" fill="none" d="M0 0 L256 0 L256 256 L0 256 Z" class="uMoxnCJp_0"></path><path d="M208,64H176L160,40H96L80,64H48A16,16,0,0,0,32,80V192a16,16,0,0,0,16,16H208a16,16,0,0,0,16-16V80A16,16,0,0,0,208,64ZM128,168a36,36,0,1,1,36-36A36,36,0,0,1,128,168Z" opacity="0.2" class="uMoxnCJp_1"></path><path d="M208,208H48a16,16,0,0,1-16-16V80A16,16,0,0,1,48,64H80L96,40h64l16,24h32a16,16,0,0,1,16,16V192A16,16,0,0,1,208,208Z" fill="none" stroke="currentColor" stroke-linecap="round" stroke-linejoin="round" stroke-width="16" class="uMoxnCJp_2"></path><path fill="none" stroke="currentColor" stroke-linecap="round" stroke-linejoin="round" stroke-width="16" d="M92,132A36,36 0,1,1 164,132A36,36 0,1,1 92,132" class="uMoxnCJp_3"></path><style data-made-with="vivus-instant">.uMoxnCJp_0{stroke-dasharray:1024 1026;stroke-dashoffset:1025;animation:uMoxnCJp_draw_0 7200ms linear 0ms infinite,uMoxnCJp_fade 7200ms linear 0ms infinite;}.uMoxnCJp_1{stroke-dasharray:897 899;stroke-dashoffset:898;animation:uMoxnCJp_draw_1 7200ms linear 0ms infinite,uMoxnCJp_fade 7200ms linear 0ms infinite;}.uMoxnCJp_2{stroke-dasharray:671 673;stroke-dashoffset:672;animation:uMoxnCJp_draw_2 7200ms linear 0ms infinite,uMoxnCJp_fade 7200ms linear 0ms infinite;}.uMoxnCJp_3{stroke-dasharray:227 229;stroke-dashoffset:228;animation:uMoxnCJp_draw_3 7200ms linear 0ms infinite,uMoxnCJp_fade 7200ms linear 0ms infinite;}@keyframes uMoxnCJp_draw{100%{stroke-dashoffset:0;}}@keyframes uMoxnCJp_fade{0%{stroke-opacity:1;}94.44444444444444%{stroke-opacity:1;}100%{stroke-opacity:0;}}@keyframes uMoxnCJp_draw_0{11.11111111111111%{stroke-dashoffset: 1025}52.5%{ stroke-dashoffset: 0;}100%{ stroke-dashoffset: 0;}}@keyframes uMoxnCJp_draw_1{11.203703703703702%{stroke-dashoffset: 898}52.59259259259259%{ stroke-dashoffset: 0;}100%{ stroke-dashoffset: 0;}}@keyframes uMoxnCJp_draw_2{11.296296296296298%{stroke-dashoffset: 672}52.68518518518519%{ stroke-dashoffset: 0;}100%{ stroke-dashoffset: 0;}}@keyframes uMoxnCJp_draw_3{11.38888888888889%{stroke-dashoffset: 228}52.77777777777778%{ stroke-dashoffset: 0;}100%{ stroke-dashoffset: 0;}}</style></svg>