<svg xmlns="http://www.w3.org/2000/svg" viewBox="0 0 256 256" style=""><path width="256" height="256" fill="none" d="M0 0 L256 0 L256 256 L0 256 Z" class="kxxLbTdJ_0"></path><path d="M104,147.43l98.34-97.09a8,8,0,0,1,11.32,0l24,23.6a8,8,0,0,1,0,11.32l-128.4,128.4a8,8,0,0,1-11.32,0l-71.6-72a8,8,0,0,1,0-11.31l24-24a8,8,0,0,1,11.32,0Z" opacity="0.2" class="kxxLbTdJ_1"></path><path d="M104,147.43l98.34-97.09a8,8,0,0,1,11.32,0l24,23.6a8,8,0,0,1,0,11.32l-128.4,128.4a8,8,0,0,1-11.32,0l-71.6-72a8,8,0,0,1,0-11.31l24-24a8,8,0,0,1,11.32,0Z" fill="none" stroke="currentColor" stroke-linecap="round" stroke-linejoin="round" stroke-width="16" class="kxxLbTdJ_2"></path><style data-made-with="vivus-instant">.kxxLbTdJ_0{stroke-dasharray:1024 1026;stroke-dashoffset:1025;animation:kxxLbTdJ_draw_0 7200ms linear 0ms infinite,kxxLbTdJ_fade 7200ms linear 0ms infinite;}.kxxLbTdJ_1{stroke-dasharray:611 613;stroke-dashoffset:612;animation:kxxLbTdJ_draw_1 7200ms linear 0ms infinite,kxxLbTdJ_fade 7200ms linear 0ms infinite;}.kxxLbTdJ_2{stroke-dasharray:611 613;stroke-dashoffset:612;animation:kxxLbTdJ_draw_2 7200ms linear 0ms infinite,kxxLbTdJ_fade 7200ms linear 0ms infinite;}@keyframes kxxLbTdJ_draw{100%{stroke-dashoffset:0;}}@keyframes kxxLbTdJ_fade{0%{stroke-opacity:1;}94.44444444444444%{stroke-opacity:1;}100%{stroke-opacity:0;}}@keyframes kxxLbTdJ_draw_0{11.11111111111111%{stroke-dashoffset: 1025}52.5%{ stroke-dashoffset: 0;}100%{ stroke-dashoffset: 0;}}@keyframes kxxLbTdJ_draw_1{11.25%{stroke-dashoffset: 612}52.63888888888889%{ stroke-dashoffset: 0;}100%{ stroke-dashoffset: 0;}}@keyframes kxxLbTdJ_draw_2{11.38888888888889%{stroke-dashoffset: 612}52.77777777777778%{ stroke-dashoffset: 0;}100%{ stroke-dashoffset: 0;}}</style></svg>