<svg xmlns="http://www.w3.org/2000/svg" viewBox="0 0 256 256" style=""><path width="256" height="256" fill="none" d="M0 0 L256 0 L256 256 L0 256 Z" class="pQiEPKLh_0"></path><path d="M160,40a39.83,39.83,0,0,1,8,24v8H88V64a39.83,39.83,0,0,1,8-24H56a8,8,0,0,0-8,8V216a8,8,0,0,0,8,8H200a8,8,0,0,0,8-8V48a8,8,0,0,0-8-8Z" opacity="0.2" class="pQiEPKLh_1"></path><path fill="none" stroke="currentColor" stroke-linecap="round" stroke-linejoin="round" stroke-width="16" d="M96,152L160,152" class="pQiEPKLh_2"></path><path fill="none" stroke="currentColor" stroke-linecap="round" stroke-linejoin="round" stroke-width="16" d="M96,120L160,120" class="pQiEPKLh_3"></path><path d="M160,40h40a8,8,0,0,1,8,8V216a8,8,0,0,1-8,8H56a8,8,0,0,1-8-8V48a8,8,0,0,1,8-8H96" fill="none" stroke="currentColor" stroke-linecap="round" stroke-linejoin="round" stroke-width="16" class="pQiEPKLh_4"></path><path d="M88,72V64a40,40,0,0,1,80,0v8Z" fill="none" stroke="currentColor" stroke-linecap="round" stroke-linejoin="round" stroke-width="16" class="pQiEPKLh_5"></path><style data-made-with="vivus-instant">.pQiEPKLh_0{stroke-dasharray:1024 1026;stroke-dashoffset:1025;animation:pQiEPKLh_draw_0 7200ms linear 0ms infinite,pQiEPKLh_fade 7200ms linear 0ms infinite;}.pQiEPKLh_1{stroke-dasharray:758 760;stroke-dashoffset:759;animation:pQiEPKLh_draw_1 7200ms linear 0ms infinite,pQiEPKLh_fade 7200ms linear 0ms infinite;}.pQiEPKLh_2{stroke-dasharray:64 66;stroke-dashoffset:65;animation:pQiEPKLh_draw_2 7200ms linear 0ms infinite,pQiEPKLh_fade 7200ms linear 0ms infinite;}.pQiEPKLh_3{stroke-dasharray:64 66;stroke-dashoffset:65;animation:pQiEPKLh_draw_3 7200ms linear 0ms infinite,pQiEPKLh_fade 7200ms linear 0ms infinite;}.pQiEPKLh_4{stroke-dasharray:611 613;stroke-dashoffset:612;animation:pQiEPKLh_draw_4 7200ms linear 0ms infinite,pQiEPKLh_fade 7200ms linear 0ms infinite;}.pQiEPKLh_5{stroke-dasharray:222 224;stroke-dashoffset:223;animation:pQiEPKLh_draw_5 7200ms linear 0ms infinite,pQiEPKLh_fade 7200ms linear 0ms infinite;}@keyframes pQiEPKLh_draw{100%{stroke-dashoffset:0;}}@keyframes pQiEPKLh_fade{0%{stroke-opacity:1;}94.44444444444444%{stroke-opacity:1;}100%{stroke-opacity:0;}}@keyframes pQiEPKLh_draw_0{11.11111111111111%{stroke-dashoffset: 1025}52.5%{ stroke-dashoffset: 0;}100%{ stroke-dashoffset: 0;}}@keyframes pQiEPKLh_draw_1{11.166666666666666%{stroke-dashoffset: 759}52.55555555555556%{ stroke-dashoffset: 0;}100%{ stroke-dashoffset: 0;}}@keyframes pQiEPKLh_draw_2{11.222222222222221%{stroke-dashoffset: 65}52.61111111111111%{ stroke-dashoffset: 0;}100%{ stroke-dashoffset: 0;}}@keyframes pQiEPKLh_draw_3{11.277777777777779%{stroke-dashoffset: 65}52.666666666666664%{ stroke-dashoffset: 0;}100%{ stroke-dashoffset: 0;}}@keyframes pQiEPKLh_draw_4{11.333333333333332%{stroke-dashoffset: 612}52.72222222222223%{ stroke-dashoffset: 0;}100%{ stroke-dashoffset: 0;}}@keyframes pQiEPKLh_draw_5{11.38888888888889%{stroke-dashoffset: 223}52.77777777777778%{ stroke-dashoffset: 0;}100%{ stroke-dashoffset: 0;}}</style></svg>