<svg xmlns="http://www.w3.org/2000/svg" viewBox="0 0 256 256" style=""><path width="256" height="256" fill="none" d="M0 0 L256 0 L256 256 L0 256 Z" class="cZKiKEyB_0"></path><path d="M128,128h24a40,40,0,0,1,0,80H128Z" opacity="0.2" class="cZKiKEyB_1"></path><path d="M128,48H112a40,40,0,0,0,0,80h16Z" opacity="0.2" class="cZKiKEyB_2"></path><path fill="none" stroke="currentColor" stroke-linecap="round" stroke-linejoin="round" stroke-width="16" d="M128,24L128,232" class="cZKiKEyB_3"></path><path d="M184,88a40,40,0,0,0-40-40H112a40,40,0,0,0,0,80h40a40,40,0,0,1,0,80H104a40,40,0,0,1-40-40" fill="none" stroke="currentColor" stroke-linecap="round" stroke-linejoin="round" stroke-width="16" class="cZKiKEyB_4"></path><style data-made-with="vivus-instant">.cZKiKEyB_0{stroke-dasharray:1024 1026;stroke-dashoffset:1025;animation:cZKiKEyB_draw_0 7200ms linear 0ms infinite,cZKiKEyB_fade 7200ms linear 0ms infinite;}.cZKiKEyB_1{stroke-dasharray:254 256;stroke-dashoffset:255;animation:cZKiKEyB_draw_1 7200ms linear 0ms infinite,cZKiKEyB_fade 7200ms linear 0ms infinite;}.cZKiKEyB_2{stroke-dasharray:238 240;stroke-dashoffset:239;animation:cZKiKEyB_draw_2 7200ms linear 0ms infinite,cZKiKEyB_fade 7200ms linear 0ms infinite;}.cZKiKEyB_3{stroke-dasharray:208 210;stroke-dashoffset:209;animation:cZKiKEyB_draw_3 7200ms linear 0ms infinite,cZKiKEyB_fade 7200ms linear 0ms infinite;}.cZKiKEyB_4{stroke-dasharray:498 500;stroke-dashoffset:499;animation:cZKiKEyB_draw_4 7200ms linear 0ms infinite,cZKiKEyB_fade 7200ms linear 0ms infinite;}@keyframes cZKiKEyB_draw{100%{stroke-dashoffset:0;}}@keyframes cZKiKEyB_fade{0%{stroke-opacity:1;}94.44444444444444%{stroke-opacity:1;}100%{stroke-opacity:0;}}@keyframes cZKiKEyB_draw_0{11.11111111111111%{stroke-dashoffset: 1025}38.88888888888889%{ stroke-dashoffset: 0;}100%{ stroke-dashoffset: 0;}}@keyframes cZKiKEyB_draw_1{14.583333333333334%{stroke-dashoffset: 255}42.36111111111111%{ stroke-dashoffset: 0;}100%{ stroke-dashoffset: 0;}}@keyframes cZKiKEyB_draw_2{18.055555555555554%{stroke-dashoffset: 239}45.83333333333333%{ stroke-dashoffset: 0;}100%{ stroke-dashoffset: 0;}}@keyframes cZKiKEyB_draw_3{21.52777777777778%{stroke-dashoffset: 209}49.30555555555556%{ stroke-dashoffset: 0;}100%{ stroke-dashoffset: 0;}}@keyframes cZKiKEyB_draw_4{25%{stroke-dashoffset: 499}52.77777777777778%{ stroke-dashoffset: 0;}100%{ stroke-dashoffset: 0;}}</style></svg>