<svg xmlns="http://www.w3.org/2000/svg" viewBox="0 0 256 256" style=""><path width="256" height="256" fill="none" d="M0 0 L256 0 L256 256 L0 256 Z" class="aXsUIXIy_0"></path><path opacity="0.2" d="M32,128A24,24 0,1,1 80,128A24,24 0,1,1 32,128" class="aXsUIXIy_1"></path><path opacity="0.2" d="M128,128A24,24 0,1,1 176,128A24,24 0,1,1 128,128" class="aXsUIXIy_2"></path><path fill="none" stroke="currentColor" stroke-linecap="round" stroke-linejoin="round" stroke-width="16" d="M32,128A24,24 0,1,1 80,128A24,24 0,1,1 32,128" class="aXsUIXIy_3"></path><path fill="none" stroke="currentColor" stroke-linecap="round" stroke-linejoin="round" stroke-width="16" d="M128,128A24,24 0,1,1 176,128A24,24 0,1,1 128,128" class="aXsUIXIy_4"></path><path fill="none" stroke="currentColor" stroke-linecap="round" stroke-linejoin="round" stroke-width="16" d="M128,128A48,88 0,1,1 224,128A48,88 0,1,1 128,128" class="aXsUIXIy_5"></path><path fill="none" stroke="currentColor" stroke-linecap="round" stroke-linejoin="round" stroke-width="16" d="M32,128A48,88 0,1,1 128,128A48,88 0,1,1 32,128" class="aXsUIXIy_6"></path><style data-made-with="vivus-instant">.aXsUIXIy_0{stroke-dasharray:1024 1026;stroke-dashoffset:1025;animation:aXsUIXIy_draw_0 7200ms linear 0ms infinite,aXsUIXIy_fade 7200ms linear 0ms infinite;}.aXsUIXIy_1{stroke-dasharray:151 153;stroke-dashoffset:152;animation:aXsUIXIy_draw_1 7200ms linear 0ms infinite,aXsUIXIy_fade 7200ms linear 0ms infinite;}.aXsUIXIy_2{stroke-dasharray:151 153;stroke-dashoffset:152;animation:aXsUIXIy_draw_2 7200ms linear 0ms infinite,aXsUIXIy_fade 7200ms linear 0ms infinite;}.aXsUIXIy_3{stroke-dasharray:151 153;stroke-dashoffset:152;animation:aXsUIXIy_draw_3 7200ms linear 0ms infinite,aXsUIXIy_fade 7200ms linear 0ms infinite;}.aXsUIXIy_4{stroke-dasharray:151 153;stroke-dashoffset:152;animation:aXsUIXIy_draw_4 7200ms linear 0ms infinite,aXsUIXIy_fade 7200ms linear 0ms infinite;}.aXsUIXIy_5{stroke-dasharray:437 439;stroke-dashoffset:438;animation:aXsUIXIy_draw_5 7200ms linear 0ms infinite,aXsUIXIy_fade 7200ms linear 0ms infinite;}.aXsUIXIy_6{stroke-dasharray:437 439;stroke-dashoffset:438;animation:aXsUIXIy_draw_6 7200ms linear 0ms infinite,aXsUIXIy_fade 7200ms linear 0ms infinite;}@keyframes aXsUIXIy_draw{100%{stroke-dashoffset:0;}}@keyframes aXsUIXIy_fade{0%{stroke-opacity:1;}94.44444444444444%{stroke-opacity:1;}100%{stroke-opacity:0;}}@keyframes aXsUIXIy_draw_0{11.11111111111111%{stroke-dashoffset: 1025}38.88888888888889%{ stroke-dashoffset: 0;}100%{ stroke-dashoffset: 0;}}@keyframes aXsUIXIy_draw_1{13.425925925925924%{stroke-dashoffset: 152}41.2037037037037%{ stroke-dashoffset: 0;}100%{ stroke-dashoffset: 0;}}@keyframes aXsUIXIy_draw_2{15.740740740740739%{stroke-dashoffset: 152}43.51851851851851%{ stroke-dashoffset: 0;}100%{ stroke-dashoffset: 0;}}@keyframes aXsUIXIy_draw_3{18.055555555555554%{stroke-dashoffset: 152}45.83333333333333%{ stroke-dashoffset: 0;}100%{ stroke-dashoffset: 0;}}@keyframes aXsUIXIy_draw_4{20.37037037037037%{stroke-dashoffset: 152}48.148148148148145%{ stroke-dashoffset: 0;}100%{ stroke-dashoffset: 0;}}@keyframes aXsUIXIy_draw_5{22.685185185185183%{stroke-dashoffset: 438}50.462962962962955%{ stroke-dashoffset: 0;}100%{ stroke-dashoffset: 0;}}@keyframes aXsUIXIy_draw_6{25%{stroke-dashoffset: 438}52.77777777777778%{ stroke-dashoffset: 0;}100%{ stroke-dashoffset: 0;}}</style></svg>