<svg xmlns="http://www.w3.org/2000/svg" viewBox="0 0 256 256" style=""><path width="256" height="256" fill="none" d="M0 0 L256 0 L256 256 L0 256 Z" class="pkUIvbop_0"></path><path d="M192,120,136,64l29.66-29.66a8,8,0,0,1,11.31,0L221.66,79a8,8,0,0,1,0,11.31Z" opacity="0.2" class="pkUIvbop_1"></path><path d="M92.69,216H48a8,8,0,0,1-8-8V163.31a8,8,0,0,1,2.34-5.65L165.66,34.34a8,8,0,0,1,11.31,0L221.66,79a8,8,0,0,1,0,11.31L98.34,213.66A8,8,0,0,1,92.69,216Z" fill="none" stroke="currentColor" stroke-linecap="round" stroke-linejoin="round" stroke-width="16" class="pkUIvbop_2"></path><path fill="none" stroke="currentColor" stroke-linecap="round" stroke-linejoin="round" stroke-width="16" d="M136,64L192,120" class="pkUIvbop_3"></path><path fill="none" stroke="currentColor" stroke-linecap="round" stroke-linejoin="round" stroke-width="16" d="M164,92L68,188" class="pkUIvbop_4"></path><path fill="none" stroke="currentColor" stroke-linecap="round" stroke-linejoin="round" stroke-width="16" d="M95.49,215.49L40.51,160.51" class="pkUIvbop_5"></path><style data-made-with="vivus-instant">.pkUIvbop_0{stroke-dasharray:1024 1026;stroke-dashoffset:1025;animation:pkUIvbop_draw_0 7200ms linear 0ms infinite,pkUIvbop_fade 7200ms linear 0ms infinite;}.pkUIvbop_1{stroke-dasharray:252 254;stroke-dashoffset:253;animation:pkUIvbop_draw_1 7200ms linear 0ms infinite,pkUIvbop_fade 7200ms linear 0ms infinite;}.pkUIvbop_2{stroke-dasharray:552 554;stroke-dashoffset:553;animation:pkUIvbop_draw_2 7200ms linear 0ms infinite,pkUIvbop_fade 7200ms linear 0ms infinite;}.pkUIvbop_3{stroke-dasharray:80 82;stroke-dashoffset:81;animation:pkUIvbop_draw_3 7200ms linear 0ms infinite,pkUIvbop_fade 7200ms linear 0ms infinite;}.pkUIvbop_4{stroke-dasharray:136 138;stroke-dashoffset:137;animation:pkUIvbop_draw_4 7200ms linear 0ms infinite,pkUIvbop_fade 7200ms linear 0ms infinite;}.pkUIvbop_5{stroke-dasharray:78 80;stroke-dashoffset:79;animation:pkUIvbop_draw_5 7200ms linear 0ms infinite,pkUIvbop_fade 7200ms linear 0ms infinite;}@keyframes pkUIvbop_draw{100%{stroke-dashoffset:0;}}@keyframes pkUIvbop_fade{0%{stroke-opacity:1;}94.44444444444444%{stroke-opacity:1;}100%{stroke-opacity:0;}}@keyframes pkUIvbop_draw_0{11.11111111111111%{stroke-dashoffset: 1025}38.88888888888889%{ stroke-dashoffset: 0;}100%{ stroke-dashoffset: 0;}}@keyframes pkUIvbop_draw_1{13.88888888888889%{stroke-dashoffset: 253}41.66666666666667%{ stroke-dashoffset: 0;}100%{ stroke-dashoffset: 0;}}@keyframes pkUIvbop_draw_2{16.666666666666664%{stroke-dashoffset: 553}44.44444444444444%{ stroke-dashoffset: 0;}100%{ stroke-dashoffset: 0;}}@keyframes pkUIvbop_draw_3{19.444444444444446%{stroke-dashoffset: 81}47.22222222222222%{ stroke-dashoffset: 0;}100%{ stroke-dashoffset: 0;}}@keyframes pkUIvbop_draw_4{22.22222222222222%{stroke-dashoffset: 137}50%{ stroke-dashoffset: 0;}100%{ stroke-dashoffset: 0;}}@keyframes pkUIvbop_draw_5{25%{stroke-dashoffset: 79}52.77777777777778%{ stroke-dashoffset: 0;}100%{ stroke-dashoffset: 0;}}</style></svg>