<svg xmlns="http://www.w3.org/2000/svg" viewBox="0 0 256 256" style=""><path width="256" height="256" fill="none" d="M0 0 L256 0 L256 256 L0 256 Z" class="vWyOXXcK_0"></path><path opacity="0.2" d="M32,128A96,96 0,1,1 224,128A96,96 0,1,1 32,128" class="vWyOXXcK_1"></path><path fill="none" stroke="currentColor" stroke-linecap="round" stroke-linejoin="round" stroke-width="16" d="M32,128L224,128" class="vWyOXXcK_2"></path><path fill="none" stroke="currentColor" stroke-linecap="round" stroke-linejoin="round" stroke-width="16" d="M32,128A96,96 0,1,1 224,128A96,96 0,1,1 32,128" class="vWyOXXcK_3"></path><path d="M168,128c0,64-40,96-40,96s-40-32-40-96,40-96,40-96S168,64,168,128Z" fill="none" stroke="currentColor" stroke-linecap="round" stroke-linejoin="round" stroke-width="16" class="vWyOXXcK_4"></path><style data-made-with="vivus-instant">.vWyOXXcK_0{stroke-dasharray:1024 1026;stroke-dashoffset:1025;animation:vWyOXXcK_draw_0 7200ms linear 0ms infinite,vWyOXXcK_fade 7200ms linear 0ms infinite;}.vWyOXXcK_1{stroke-dasharray:604 606;stroke-dashoffset:605;animation:vWyOXXcK_draw_1 7200ms linear 0ms infinite,vWyOXXcK_fade 7200ms linear 0ms infinite;}.vWyOXXcK_2{stroke-dasharray:192 194;stroke-dashoffset:193;animation:vWyOXXcK_draw_2 7200ms linear 0ms infinite,vWyOXXcK_fade 7200ms linear 0ms infinite;}.vWyOXXcK_3{stroke-dasharray:604 606;stroke-dashoffset:605;animation:vWyOXXcK_draw_3 7200ms linear 0ms infinite,vWyOXXcK_fade 7200ms linear 0ms infinite;}.vWyOXXcK_4{stroke-dasharray:429 431;stroke-dashoffset:430;animation:vWyOXXcK_draw_4 7200ms linear 0ms infinite,vWyOXXcK_fade 7200ms linear 0ms infinite;}@keyframes vWyOXXcK_draw{100%{stroke-dashoffset:0;}}@keyframes vWyOXXcK_fade{0%{stroke-opacity:1;}94.44444444444444%{stroke-opacity:1;}100%{stroke-opacity:0;}}@keyframes vWyOXXcK_draw_0{11.11111111111111%{stroke-dashoffset: 1025}38.88888888888889%{ stroke-dashoffset: 0;}100%{ stroke-dashoffset: 0;}}@keyframes vWyOXXcK_draw_1{14.583333333333334%{stroke-dashoffset: 605}42.36111111111111%{ stroke-dashoffset: 0;}100%{ stroke-dashoffset: 0;}}@keyframes vWyOXXcK_draw_2{18.055555555555554%{stroke-dashoffset: 193}45.83333333333333%{ stroke-dashoffset: 0;}100%{ stroke-dashoffset: 0;}}@keyframes vWyOXXcK_draw_3{21.52777777777778%{stroke-dashoffset: 605}49.30555555555556%{ stroke-dashoffset: 0;}100%{ stroke-dashoffset: 0;}}@keyframes vWyOXXcK_draw_4{25%{stroke-dashoffset: 430}52.77777777777778%{ stroke-dashoffset: 0;}100%{ stroke-dashoffset: 0;}}</style></svg>