<svg xmlns="http://www.w3.org/2000/svg" viewBox="0 0 256 256" style=""><path width="256" height="256" fill="none" d="M0 0 L256 0 L256 256 L0 256 Z" class="YiCOUrDE_0"></path><path d="M128,160,40,113.07h0v53.22a8,8,0,0,0,2,5.31c11.3,12.59,38.9,36.4,86,36.4s74.68-23.81,86-36.4a8,8,0,0,0,2-5.31V113.07Z" opacity="0.2" class="YiCOUrDE_1"></path><path fill="none" stroke="currentColor" stroke-linecap="round" stroke-linejoin="round" stroke-width="16" d="M8,96L128,32L248,96L128,160L8,96Z" class="YiCOUrDE_2"></path><path fill="none" stroke="currentColor" stroke-linecap="round" stroke-linejoin="round" stroke-width="16" d="M128,96L184,125.87L184,240" class="YiCOUrDE_3"></path><path d="M216,113.07v53.22a8,8,0,0,1-2,5.31c-11.3,12.59-38.9,36.4-86,36.4s-74.68-23.81-86-36.4a8,8,0,0,1-2-5.31V113.07" fill="none" stroke="currentColor" stroke-linecap="round" stroke-linejoin="round" stroke-width="16" class="YiCOUrDE_4"></path><style data-made-with="vivus-instant">.YiCOUrDE_0{stroke-dasharray:1024 1026;stroke-dashoffset:1025;animation:YiCOUrDE_draw_0 7200ms linear 0ms infinite,YiCOUrDE_fade 7200ms linear 0ms infinite;}.YiCOUrDE_1{stroke-dasharray:510 512;stroke-dashoffset:511;animation:YiCOUrDE_draw_1 7200ms linear 0ms infinite,YiCOUrDE_fade 7200ms linear 0ms infinite;}.YiCOUrDE_2{stroke-dasharray:544 546;stroke-dashoffset:545;animation:YiCOUrDE_draw_2 7200ms linear 0ms infinite,YiCOUrDE_fade 7200ms linear 0ms infinite;}.YiCOUrDE_3{stroke-dasharray:178 180;stroke-dashoffset:179;animation:YiCOUrDE_draw_3 7200ms linear 0ms infinite,YiCOUrDE_fade 7200ms linear 0ms infinite;}.YiCOUrDE_4{stroke-dasharray:311 313;stroke-dashoffset:312;animation:YiCOUrDE_draw_4 7200ms linear 0ms infinite,YiCOUrDE_fade 7200ms linear 0ms infinite;}@keyframes YiCOUrDE_draw{100%{stroke-dashoffset:0;}}@keyframes YiCOUrDE_fade{0%{stroke-opacity:1;}94.44444444444444%{stroke-opacity:1;}100%{stroke-opacity:0;}}@keyframes YiCOUrDE_draw_0{11.11111111111111%{stroke-dashoffset: 1025}38.88888888888889%{ stroke-dashoffset: 0;}100%{ stroke-dashoffset: 0;}}@keyframes YiCOUrDE_draw_1{14.583333333333334%{stroke-dashoffset: 511}42.36111111111111%{ stroke-dashoffset: 0;}100%{ stroke-dashoffset: 0;}}@keyframes YiCOUrDE_draw_2{18.055555555555554%{stroke-dashoffset: 545}45.83333333333333%{ stroke-dashoffset: 0;}100%{ stroke-dashoffset: 0;}}@keyframes YiCOUrDE_draw_3{21.52777777777778%{stroke-dashoffset: 179}49.30555555555556%{ stroke-dashoffset: 0;}100%{ stroke-dashoffset: 0;}}@keyframes YiCOUrDE_draw_4{25%{stroke-dashoffset: 312}52.77777777777778%{ stroke-dashoffset: 0;}100%{ stroke-dashoffset: 0;}}</style></svg>