<svg xmlns="http://www.w3.org/2000/svg" viewBox="0 0 256 256" style=""><path width="256" height="256" fill="none" d="M0 0 L256 0 L256 256 L0 256 Z" class="rnaELuIY_0"></path><path d="M140,148l28-28,20,20,40.06-40.06L178.23,49.77a88,88,0,0,0-98.44-18L136,88l-28,28Z" opacity="0.2" class="rnaELuIY_1"></path><path d="M79.7,31.83l.09,0h0Z" opacity="0.2" class="rnaELuIY_2"></path><path fill="none" stroke="currentColor" stroke-linecap="round" stroke-linejoin="round" stroke-width="16" d="M108,116L140,148" class="rnaELuIY_3"></path><path fill="none" stroke="currentColor" stroke-linecap="round" stroke-linejoin="round" stroke-width="16" d="M228.06,99.94L188,140" class="rnaELuIY_4"></path><path d="M40,64,53.77,49.77a88,88,0,0,1,124.46,0l67.43,67.89a8,8,0,0,1,0,11.31L217,157.66a8,8,0,0,1-11.31,0L168,120,66.34,221.66a8,8,0,0,1-11.31,0L34.34,201a8,8,0,0,1,0-11.31L136,88,79.78,31.78" fill="none" stroke="currentColor" stroke-linecap="round" stroke-linejoin="round" stroke-width="16" class="rnaELuIY_5"></path><style data-made-with="vivus-instant">.rnaELuIY_0{stroke-dasharray:1024 1026;stroke-dashoffset:1025;animation:rnaELuIY_draw_0 7200ms linear 0ms infinite,rnaELuIY_fade 7200ms linear 0ms infinite;}.rnaELuIY_1{stroke-dasharray:467 469;stroke-dashoffset:468;animation:rnaELuIY_draw_1 7200ms linear 0ms infinite,rnaELuIY_fade 7200ms linear 0ms infinite;}.rnaELuIY_2{stroke-dasharray:1 3;stroke-dashoffset:2;animation:rnaELuIY_draw_2 7200ms linear 0ms infinite,rnaELuIY_fade 7200ms linear 0ms infinite;}.rnaELuIY_3{stroke-dasharray:46 48;stroke-dashoffset:47;animation:rnaELuIY_draw_3 7200ms linear 0ms infinite,rnaELuIY_fade 7200ms linear 0ms infinite;}.rnaELuIY_4{stroke-dasharray:57 59;stroke-dashoffset:58;animation:rnaELuIY_draw_4 7200ms linear 0ms infinite,rnaELuIY_fade 7200ms linear 0ms infinite;}.rnaELuIY_5{stroke-dasharray:795 797;stroke-dashoffset:796;animation:rnaELuIY_draw_5 7200ms linear 0ms infinite,rnaELuIY_fade 7200ms linear 0ms infinite;}@keyframes rnaELuIY_draw{100%{stroke-dashoffset:0;}}@keyframes rnaELuIY_fade{0%{stroke-opacity:1;}94.44444444444444%{stroke-opacity:1;}100%{stroke-opacity:0;}}@keyframes rnaELuIY_draw_0{11.11111111111111%{stroke-dashoffset: 1025}38.88888888888889%{ stroke-dashoffset: 0;}100%{ stroke-dashoffset: 0;}}@keyframes rnaELuIY_draw_1{13.88888888888889%{stroke-dashoffset: 468}41.66666666666667%{ stroke-dashoffset: 0;}100%{ stroke-dashoffset: 0;}}@keyframes rnaELuIY_draw_2{16.666666666666664%{stroke-dashoffset: 2}44.44444444444444%{ stroke-dashoffset: 0;}100%{ stroke-dashoffset: 0;}}@keyframes rnaELuIY_draw_3{19.444444444444446%{stroke-dashoffset: 47}47.22222222222222%{ stroke-dashoffset: 0;}100%{ stroke-dashoffset: 0;}}@keyframes rnaELuIY_draw_4{22.22222222222222%{stroke-dashoffset: 58}50%{ stroke-dashoffset: 0;}100%{ stroke-dashoffset: 0;}}@keyframes rnaELuIY_draw_5{25%{stroke-dashoffset: 796}52.77777777777778%{ stroke-dashoffset: 0;}100%{ stroke-dashoffset: 0;}}</style></svg>