<svg xmlns="http://www.w3.org/2000/svg" viewBox="0 0 256 256" style=""><path width="256" height="256" fill="none" d="M0 0 L256 0 L256 256 L0 256 Z" class="xHLKGGIq_0"></path><path d="M99.72,128.71a8,8,0,0,1-1.38-12.42L144,72h39.6l-.28-1.37L128,56,72.68,70.63,40,136l56,40,64,16,40-40-40-32C141,139.13,117.23,139.9,99.72,128.71Z" opacity="0.2" class="xHLKGGIq_1"></path><path fill="none" stroke="currentColor" stroke-linecap="round" stroke-linejoin="round" stroke-width="16" d="M200,152L160,192L96,176L40,136" class="xHLKGGIq_2"></path><path fill="none" stroke="currentColor" stroke-linecap="round" stroke-linejoin="round" stroke-width="16" d="M72.68,70.63L128,56L183.32,70.63" class="xHLKGGIq_3"></path><path d="M34.37,60.42,8.85,111.48a8,8,0,0,0,3.57,10.73L40,136,72.68,70.63,45.11,56.85A8,8,0,0,0,34.37,60.42Z" fill="none" stroke="currentColor" stroke-linecap="round" stroke-linejoin="round" stroke-width="16" class="xHLKGGIq_4"></path><path d="M216,136l27.58-13.79a8,8,0,0,0,3.57-10.73L221.63,60.42a8,8,0,0,0-10.74-3.57L183.32,70.63Z" fill="none" stroke="currentColor" stroke-linecap="round" stroke-linejoin="round" stroke-width="16" class="xHLKGGIq_5"></path><path d="M184,72H144L98.34,116.29a8,8,0,0,0,1.38,12.42C117.23,139.9,141,139.13,160,120l40,32,16-16" fill="none" stroke="currentColor" stroke-linecap="round" stroke-linejoin="round" stroke-width="16" class="xHLKGGIq_6"></path><path fill="none" stroke="currentColor" stroke-linecap="round" stroke-linejoin="round" stroke-width="16" d="M124.06,216L82.34,205.57L56,186.75" class="xHLKGGIq_7"></path><style data-made-with="vivus-instant">.xHLKGGIq_0{stroke-dasharray:1024 1026;stroke-dashoffset:1025;animation:xHLKGGIq_draw_0 7200ms linear 0ms infinite,xHLKGGIq_fade 7200ms linear 0ms infinite;}.xHLKGGIq_1{stroke-dasharray:616 618;stroke-dashoffset:617;animation:xHLKGGIq_draw_1 7200ms linear 0ms infinite,xHLKGGIq_fade 7200ms linear 0ms infinite;}.xHLKGGIq_2{stroke-dasharray:192 194;stroke-dashoffset:193;animation:xHLKGGIq_draw_2 7200ms linear 0ms infinite,xHLKGGIq_fade 7200ms linear 0ms infinite;}.xHLKGGIq_3{stroke-dasharray:115 117;stroke-dashoffset:116;animation:xHLKGGIq_draw_3 7200ms linear 0ms infinite,xHLKGGIq_fade 7200ms linear 0ms infinite;}.xHLKGGIq_4{stroke-dasharray:217 219;stroke-dashoffset:218;animation:xHLKGGIq_draw_4 7200ms linear 0ms infinite,xHLKGGIq_fade 7200ms linear 0ms infinite;}.xHLKGGIq_5{stroke-dasharray:217 219;stroke-dashoffset:218;animation:xHLKGGIq_draw_5 7200ms linear 0ms infinite,xHLKGGIq_fade 7200ms linear 0ms infinite;}.xHLKGGIq_6{stroke-dasharray:258 260;stroke-dashoffset:259;animation:xHLKGGIq_draw_6 7200ms linear 0ms infinite,xHLKGGIq_fade 7200ms linear 0ms infinite;}.xHLKGGIq_7{stroke-dasharray:76 78;stroke-dashoffset:77;animation:xHLKGGIq_draw_7 7200ms linear 0ms infinite,xHLKGGIq_fade 7200ms linear 0ms infinite;}@keyframes xHLKGGIq_draw{100%{stroke-dashoffset:0;}}@keyframes xHLKGGIq_fade{0%{stroke-opacity:1;}94.44444444444444%{stroke-opacity:1;}100%{stroke-opacity:0;}}@keyframes xHLKGGIq_draw_0{11.11111111111111%{stroke-dashoffset: 1025}38.88888888888889%{ stroke-dashoffset: 0;}100%{ stroke-dashoffset: 0;}}@keyframes xHLKGGIq_draw_1{13.095238095238097%{stroke-dashoffset: 617}40.87301587301588%{ stroke-dashoffset: 0;}100%{ stroke-dashoffset: 0;}}@keyframes xHLKGGIq_draw_2{15.07936507936508%{stroke-dashoffset: 193}42.85714285714286%{ stroke-dashoffset: 0;}100%{ stroke-dashoffset: 0;}}@keyframes xHLKGGIq_draw_3{17.06349206349206%{stroke-dashoffset: 116}44.841269841269835%{ stroke-dashoffset: 0;}100%{ stroke-dashoffset: 0;}}@keyframes xHLKGGIq_draw_4{19.04761904761905%{stroke-dashoffset: 218}46.82539682539682%{ stroke-dashoffset: 0;}100%{ stroke-dashoffset: 0;}}@keyframes xHLKGGIq_draw_5{21.03174603174603%{stroke-dashoffset: 218}48.80952380952381%{ stroke-dashoffset: 0;}100%{ stroke-dashoffset: 0;}}@keyframes xHLKGGIq_draw_6{23.015873015873016%{stroke-dashoffset: 259}50.79365079365079%{ stroke-dashoffset: 0;}100%{ stroke-dashoffset: 0;}}@keyframes xHLKGGIq_draw_7{25%{stroke-dashoffset: 77}52.77777777777778%{ stroke-dashoffset: 0;}100%{ stroke-dashoffset: 0;}}</style></svg>