<svg xmlns="http://www.w3.org/2000/svg" viewBox="0 0 256 256" style=""><path width="256" height="256" fill="none" d="M0 0 L256 0 L256 256 L0 256 Z" class="rUtrvHdm_0"></path><path opacity="0.2" d="M32,128A96,96 0,1,1 224,128A96,96 0,1,1 32,128" class="rUtrvHdm_1"></path><path fill="none" stroke="currentColor" stroke-linecap="round" stroke-linejoin="round" stroke-width="16" d="M32,128A96,96 0,1,1 224,128A96,96 0,1,1 32,128" class="rUtrvHdm_2"></path><path d="M80,108A12,12 0,1,1 104,108A12,12 0,1,1 80,108" class="rUtrvHdm_3"></path><path d="M152,108A12,12 0,1,1 176,108A12,12 0,1,1 152,108" class="rUtrvHdm_4"></path><path d="M168,152c-8.3,14.35-22.23,24-40,24s-31.7-9.65-40-24" fill="none" stroke="currentColor" stroke-linecap="round" stroke-linejoin="round" stroke-width="16" class="rUtrvHdm_5"></path><style data-made-with="vivus-instant">.rUtrvHdm_0{stroke-dasharray:1024 1026;stroke-dashoffset:1025;animation:rUtrvHdm_draw_0 7200ms linear 0ms infinite,rUtrvHdm_fade 7200ms linear 0ms infinite;}.rUtrvHdm_1{stroke-dasharray:604 606;stroke-dashoffset:605;animation:rUtrvHdm_draw_1 7200ms linear 0ms infinite,rUtrvHdm_fade 7200ms linear 0ms infinite;}.rUtrvHdm_2{stroke-dasharray:604 606;stroke-dashoffset:605;animation:rUtrvHdm_draw_2 7200ms linear 0ms infinite,rUtrvHdm_fade 7200ms linear 0ms infinite;}.rUtrvHdm_3{stroke-dasharray:76 78;stroke-dashoffset:77;animation:rUtrvHdm_draw_3 7200ms linear 0ms infinite,rUtrvHdm_fade 7200ms linear 0ms infinite;}.rUtrvHdm_4{stroke-dasharray:76 78;stroke-dashoffset:77;animation:rUtrvHdm_draw_4 7200ms linear 0ms infinite,rUtrvHdm_fade 7200ms linear 0ms infinite;}.rUtrvHdm_5{stroke-dasharray:98 100;stroke-dashoffset:99;animation:rUtrvHdm_draw_5 7200ms linear 0ms infinite,rUtrvHdm_fade 7200ms linear 0ms infinite;}@keyframes rUtrvHdm_draw{100%{stroke-dashoffset:0;}}@keyframes rUtrvHdm_fade{0%{stroke-opacity:1;}94.44444444444444%{stroke-opacity:1;}100%{stroke-opacity:0;}}@keyframes rUtrvHdm_draw_0{11.11111111111111%{stroke-dashoffset: 1025}38.88888888888889%{ stroke-dashoffset: 0;}100%{ stroke-dashoffset: 0;}}@keyframes rUtrvHdm_draw_1{13.88888888888889%{stroke-dashoffset: 605}41.66666666666667%{ stroke-dashoffset: 0;}100%{ stroke-dashoffset: 0;}}@keyframes rUtrvHdm_draw_2{16.666666666666664%{stroke-dashoffset: 605}44.44444444444444%{ stroke-dashoffset: 0;}100%{ stroke-dashoffset: 0;}}@keyframes rUtrvHdm_draw_3{19.444444444444446%{stroke-dashoffset: 77}47.22222222222222%{ stroke-dashoffset: 0;}100%{ stroke-dashoffset: 0;}}@keyframes rUtrvHdm_draw_4{22.22222222222222%{stroke-dashoffset: 77}50%{ stroke-dashoffset: 0;}100%{ stroke-dashoffset: 0;}}@keyframes rUtrvHdm_draw_5{25%{stroke-dashoffset: 99}52.77777777777778%{ stroke-dashoffset: 0;}100%{ stroke-dashoffset: 0;}}</style></svg>