<svg xmlns="http://www.w3.org/2000/svg" viewBox="0 0 256 256" style=""><path width="256" height="256" fill="none" d="M0 0 L256 0 L256 256 L0 256 Z" class="pSwYAHdG_0"></path><path d="M213.27,104,196,74a20,20,0,0,0-34.64,20l-30-52A20,20,0,0,0,96.65,62h0L89.73,50A20,20,0,0,0,55.08,70L69.32,94.67a20,20,0,0,0-34.64,20L74.7,184a80,80,0,0,0,138.57-80Z" opacity="0.2" class="pSwYAHdG_1"></path><path d="M96.65,62a20,20,0,0,1,34.64-20l30,52" fill="none" stroke="currentColor" stroke-linecap="round" stroke-linejoin="round" stroke-width="16" class="pSwYAHdG_2"></path><path d="M69.32,94.67,55.08,70A20,20,0,0,1,89.73,50l31.17,54" fill="none" stroke="currentColor" stroke-linecap="round" stroke-linejoin="round" stroke-width="16" class="pSwYAHdG_3"></path><path d="M158.87,160A40,40,0,0,1,168,105.58L161.32,94A20,20,0,0,1,196,74l17.31,30A80,80,0,0,1,74.7,184l-40-69.32a20,20,0,0,1,34.64-20L88.57,128" fill="none" stroke="currentColor" stroke-linecap="round" stroke-linejoin="round" stroke-width="16" class="pSwYAHdG_4"></path><path d="M192,33.78A51.84,51.84,0,0,1,223.67,58l.33.57" fill="none" stroke="currentColor" stroke-linecap="round" stroke-linejoin="round" stroke-width="16" class="pSwYAHdG_5"></path><path d="M74.62,232A111.88,111.88,0,0,1,47,200" fill="none" stroke="currentColor" stroke-linecap="round" stroke-linejoin="round" stroke-width="16" class="pSwYAHdG_6"></path><style data-made-with="vivus-instant">.pSwYAHdG_0{stroke-dasharray:1024 1026;stroke-dashoffset:1025;animation:pSwYAHdG_draw_0 7200ms linear 0ms infinite,pSwYAHdG_fade 7200ms linear 0ms infinite;}.pSwYAHdG_1{stroke-dasharray:720 722;stroke-dashoffset:721;animation:pSwYAHdG_draw_1 7200ms linear 0ms infinite,pSwYAHdG_fade 7200ms linear 0ms infinite;}.pSwYAHdG_2{stroke-dasharray:123 125;stroke-dashoffset:124;animation:pSwYAHdG_draw_2 7200ms linear 0ms infinite,pSwYAHdG_fade 7200ms linear 0ms infinite;}.pSwYAHdG_3{stroke-dasharray:154 156;stroke-dashoffset:155;animation:pSwYAHdG_draw_3 7200ms linear 0ms infinite,pSwYAHdG_fade 7200ms linear 0ms infinite;}.pSwYAHdG_4{stroke-dasharray:605 607;stroke-dashoffset:606;animation:pSwYAHdG_draw_4 7200ms linear 0ms infinite,pSwYAHdG_fade 7200ms linear 0ms infinite;}.pSwYAHdG_5{stroke-dasharray:42 44;stroke-dashoffset:43;animation:pSwYAHdG_draw_5 7200ms linear 0ms infinite,pSwYAHdG_fade 7200ms linear 0ms infinite;}.pSwYAHdG_6{stroke-dasharray:43 45;stroke-dashoffset:44;animation:pSwYAHdG_draw_6 7200ms linear 0ms infinite,pSwYAHdG_fade 7200ms linear 0ms infinite;}@keyframes pSwYAHdG_draw{100%{stroke-dashoffset:0;}}@keyframes pSwYAHdG_fade{0%{stroke-opacity:1;}94.44444444444444%{stroke-opacity:1;}100%{stroke-opacity:0;}}@keyframes pSwYAHdG_draw_0{11.11111111111111%{stroke-dashoffset: 1025}38.88888888888889%{ stroke-dashoffset: 0;}100%{ stroke-dashoffset: 0;}}@keyframes pSwYAHdG_draw_1{13.425925925925924%{stroke-dashoffset: 721}41.2037037037037%{ stroke-dashoffset: 0;}100%{ stroke-dashoffset: 0;}}@keyframes pSwYAHdG_draw_2{15.740740740740739%{stroke-dashoffset: 124}43.51851851851851%{ stroke-dashoffset: 0;}100%{ stroke-dashoffset: 0;}}@keyframes pSwYAHdG_draw_3{18.055555555555554%{stroke-dashoffset: 155}45.83333333333333%{ stroke-dashoffset: 0;}100%{ stroke-dashoffset: 0;}}@keyframes pSwYAHdG_draw_4{20.37037037037037%{stroke-dashoffset: 606}48.148148148148145%{ stroke-dashoffset: 0;}100%{ stroke-dashoffset: 0;}}@keyframes pSwYAHdG_draw_5{22.685185185185183%{stroke-dashoffset: 43}50.462962962962955%{ stroke-dashoffset: 0;}100%{ stroke-dashoffset: 0;}}@keyframes pSwYAHdG_draw_6{25%{stroke-dashoffset: 44}52.77777777777778%{ stroke-dashoffset: 0;}100%{ stroke-dashoffset: 0;}}</style></svg>