<svg xmlns="http://www.w3.org/2000/svg" viewBox="0 0 256 256" style=""><path width="256" height="256" fill="none" d="M0 0 L256 0 L256 256 L0 256 Z" class="JGoddbWQ_0"></path><path d="M32,184a16,16,0,0,0,16,16H64a16,16,0,0,0,16-16V144a16,16,0,0,0-16-16H32Z" opacity="0.2" class="JGoddbWQ_1"></path><path d="M192,128a16,16,0,0,0-16,16v40a16,16,0,0,0,16,16h32V128Z" opacity="0.2" class="JGoddbWQ_2"></path><path d="M224,200v8a32,32,0,0,1-32,32H136" fill="none" stroke="currentColor" stroke-linecap="round" stroke-linejoin="round" stroke-width="16" class="JGoddbWQ_3"></path><path d="M224,128H192a16,16,0,0,0-16,16v40a16,16,0,0,0,16,16h32V128a96,96,0,1,0-192,0v56a16,16,0,0,0,16,16H64a16,16,0,0,0,16-16V144a16,16,0,0,0-16-16H32" fill="none" stroke="currentColor" stroke-linecap="round" stroke-linejoin="round" stroke-width="16" class="JGoddbWQ_4"></path><style data-made-with="vivus-instant">.JGoddbWQ_0{stroke-dasharray:1024 1026;stroke-dashoffset:1025;animation:JGoddbWQ_draw_0 7200ms linear 0ms infinite,JGoddbWQ_fade 7200ms linear 0ms infinite;}.JGoddbWQ_1{stroke-dasharray:220 222;stroke-dashoffset:221;animation:JGoddbWQ_draw_1 7200ms linear 0ms infinite,JGoddbWQ_fade 7200ms linear 0ms infinite;}.JGoddbWQ_2{stroke-dasharray:227 229;stroke-dashoffset:228;animation:JGoddbWQ_draw_2 7200ms linear 0ms infinite,JGoddbWQ_fade 7200ms linear 0ms infinite;}.JGoddbWQ_3{stroke-dasharray:115 117;stroke-dashoffset:116;animation:JGoddbWQ_draw_3 7200ms linear 0ms infinite,JGoddbWQ_fade 7200ms linear 0ms infinite;}.JGoddbWQ_4{stroke-dasharray:748 750;stroke-dashoffset:749;animation:JGoddbWQ_draw_4 7200ms linear 0ms infinite,JGoddbWQ_fade 7200ms linear 0ms infinite;}@keyframes JGoddbWQ_draw{100%{stroke-dashoffset:0;}}@keyframes JGoddbWQ_fade{0%{stroke-opacity:1;}94.44444444444444%{stroke-opacity:1;}100%{stroke-opacity:0;}}@keyframes JGoddbWQ_draw_0{11.11111111111111%{stroke-dashoffset: 1025}38.88888888888889%{ stroke-dashoffset: 0;}100%{ stroke-dashoffset: 0;}}@keyframes JGoddbWQ_draw_1{14.583333333333334%{stroke-dashoffset: 221}42.36111111111111%{ stroke-dashoffset: 0;}100%{ stroke-dashoffset: 0;}}@keyframes JGoddbWQ_draw_2{18.055555555555554%{stroke-dashoffset: 228}45.83333333333333%{ stroke-dashoffset: 0;}100%{ stroke-dashoffset: 0;}}@keyframes JGoddbWQ_draw_3{21.52777777777778%{stroke-dashoffset: 116}49.30555555555556%{ stroke-dashoffset: 0;}100%{ stroke-dashoffset: 0;}}@keyframes JGoddbWQ_draw_4{25%{stroke-dashoffset: 749}52.77777777777778%{ stroke-dashoffset: 0;}100%{ stroke-dashoffset: 0;}}</style></svg>