<svg xmlns="http://www.w3.org/2000/svg" viewBox="0 0 256 256" style=""><path width="256" height="256" fill="none" d="M0 0 L256 0 L256 256 L0 256 Z" class="mHqCmaLI_0"></path><path d="M93.17,122.83A71.68,71.68,0,0,1,88,95.91c0-38.58,31.08-70.64,69.64-71.87A72,72,0,0,1,232,98.36C230.73,136.92,198.67,168,160.09,168a71.68,71.68,0,0,1-26.92-5.17h0L120,176H96v24H72v24H40a8,8,0,0,1-8-8V187.31a8,8,0,0,1,2.34-5.65l58.83-58.83Z" opacity="0.2" class="mHqCmaLI_1"></path><path d="M93.17,122.83A71.68,71.68,0,0,1,88,95.91c0-38.58,31.08-70.64,69.64-71.87A72,72,0,0,1,232,98.36C230.73,136.92,198.67,168,160.09,168a71.68,71.68,0,0,1-26.92-5.17h0L120,176H96v24H72v24H40a8,8,0,0,1-8-8V187.31a8,8,0,0,1,2.34-5.65l58.83-58.83Z" fill="none" stroke="currentColor" stroke-linecap="round" stroke-linejoin="round" stroke-width="16" class="mHqCmaLI_2"></path><path d="M168,76A12,12 0,1,1 192,76A12,12 0,1,1 168,76" class="mHqCmaLI_3"></path><style data-made-with="vivus-instant">.mHqCmaLI_0{stroke-dasharray:1024 1026;stroke-dashoffset:1025;animation:mHqCmaLI_draw_0 7200ms linear 0ms infinite,mHqCmaLI_fade 7200ms linear 0ms infinite;}.mHqCmaLI_1{stroke-dasharray:672 674;stroke-dashoffset:673;animation:mHqCmaLI_draw_1 7200ms linear 0ms infinite,mHqCmaLI_fade 7200ms linear 0ms infinite;}.mHqCmaLI_2{stroke-dasharray:672 674;stroke-dashoffset:673;animation:mHqCmaLI_draw_2 7200ms linear 0ms infinite,mHqCmaLI_fade 7200ms linear 0ms infinite;}.mHqCmaLI_3{stroke-dasharray:76 78;stroke-dashoffset:77;animation:mHqCmaLI_draw_3 7200ms linear 0ms infinite,mHqCmaLI_fade 7200ms linear 0ms infinite;}@keyframes mHqCmaLI_draw{100%{stroke-dashoffset:0;}}@keyframes mHqCmaLI_fade{0%{stroke-opacity:1;}94.44444444444444%{stroke-opacity:1;}100%{stroke-opacity:0;}}@keyframes mHqCmaLI_draw_0{11.11111111111111%{stroke-dashoffset: 1025}38.88888888888889%{ stroke-dashoffset: 0;}100%{ stroke-dashoffset: 0;}}@keyframes mHqCmaLI_draw_1{15.740740740740739%{stroke-dashoffset: 673}43.51851851851851%{ stroke-dashoffset: 0;}100%{ stroke-dashoffset: 0;}}@keyframes mHqCmaLI_draw_2{20.37037037037037%{stroke-dashoffset: 673}48.148148148148145%{ stroke-dashoffset: 0;}100%{ stroke-dashoffset: 0;}}@keyframes mHqCmaLI_draw_3{25%{stroke-dashoffset: 77}52.77777777777778%{ stroke-dashoffset: 0;}100%{ stroke-dashoffset: 0;}}</style></svg>