<svg xmlns="http://www.w3.org/2000/svg" viewBox="0 0 256 256" style=""><path width="256" height="256" fill="none" d="M0 0 L256 0 L256 256 L0 256 Z" class="rFbsQchi_0"></path><path d="M78.7,167A79.87,79.87,0,0,1,48,104.45C47.76,61.09,82.72,25,126.07,24a80,80,0,0,1,51.34,142.9A24.3,24.3,0,0,0,168,186v6a8,8,0,0,1-8,8H96a8,8,0,0,1-8-8v-6A24.11,24.11,0,0,0,78.7,167Z" opacity="0.2" class="rFbsQchi_1"></path><path fill="none" stroke="currentColor" stroke-linecap="round" stroke-linejoin="round" stroke-width="16" d="M88,232L168,232" class="rFbsQchi_2"></path><path d="M78.7,167A79.87,79.87,0,0,1,48,104.45C47.76,61.09,82.72,25,126.07,24a80,80,0,0,1,51.34,142.9A24.3,24.3,0,0,0,168,186v6a8,8,0,0,1-8,8H96a8,8,0,0,1-8-8v-6A24.11,24.11,0,0,0,78.7,167Z" fill="none" stroke="currentColor" stroke-linecap="round" stroke-linejoin="round" stroke-width="16" class="rFbsQchi_3"></path><path d="M136,56c20,3.37,36.61,20,40,40" fill="none" stroke="currentColor" stroke-linecap="round" stroke-linejoin="round" stroke-width="16" class="rFbsQchi_4"></path><style data-made-with="vivus-instant">.rFbsQchi_0{stroke-dasharray:1024 1026;stroke-dashoffset:1025;animation:rFbsQchi_draw_0 7200ms linear 0ms infinite,rFbsQchi_fade 7200ms linear 0ms infinite;}.rFbsQchi_1{stroke-dasharray:542 544;stroke-dashoffset:543;animation:rFbsQchi_draw_1 7200ms linear 0ms infinite,rFbsQchi_fade 7200ms linear 0ms infinite;}.rFbsQchi_2{stroke-dasharray:80 82;stroke-dashoffset:81;animation:rFbsQchi_draw_2 7200ms linear 0ms infinite,rFbsQchi_fade 7200ms linear 0ms infinite;}.rFbsQchi_3{stroke-dasharray:542 544;stroke-dashoffset:543;animation:rFbsQchi_draw_3 7200ms linear 0ms infinite,rFbsQchi_fade 7200ms linear 0ms infinite;}.rFbsQchi_4{stroke-dasharray:61 63;stroke-dashoffset:62;animation:rFbsQchi_draw_4 7200ms linear 0ms infinite,rFbsQchi_fade 7200ms linear 0ms infinite;}@keyframes rFbsQchi_draw{100%{stroke-dashoffset:0;}}@keyframes rFbsQchi_fade{0%{stroke-opacity:1;}94.44444444444444%{stroke-opacity:1;}100%{stroke-opacity:0;}}@keyframes rFbsQchi_draw_0{11.11111111111111%{stroke-dashoffset: 1025}38.88888888888889%{ stroke-dashoffset: 0;}100%{ stroke-dashoffset: 0;}}@keyframes rFbsQchi_draw_1{14.583333333333334%{stroke-dashoffset: 543}42.36111111111111%{ stroke-dashoffset: 0;}100%{ stroke-dashoffset: 0;}}@keyframes rFbsQchi_draw_2{18.055555555555554%{stroke-dashoffset: 81}45.83333333333333%{ stroke-dashoffset: 0;}100%{ stroke-dashoffset: 0;}}@keyframes rFbsQchi_draw_3{21.52777777777778%{stroke-dashoffset: 543}49.30555555555556%{ stroke-dashoffset: 0;}100%{ stroke-dashoffset: 0;}}@keyframes rFbsQchi_draw_4{25%{stroke-dashoffset: 62}52.77777777777778%{ stroke-dashoffset: 0;}100%{ stroke-dashoffset: 0;}}</style></svg>