<svg xmlns="http://www.w3.org/2000/svg" viewBox="0 0 256 256" style=""><path width="256" height="256" fill="none" d="M0 0 L256 0 L256 256 L0 256 Z" class="WSWUlzNe_0"></path><path d="M218.34,53.66h0a46.62,46.62,0,0,0-65.94,0L117.66,88.4c-.33.33-.64.66-1,1A46.6,46.6,0,0,0,72.4,101.66L37.66,136.4a46.63,46.63,0,0,0-.06,65.89h0a46.63,46.63,0,0,0,66,.05l34.74-34.74c.33-.33.64-.66.95-1a46.58,46.58,0,0,0,44.31-12.26l34.74-34.74A46.62,46.62,0,0,0,218.34,53.66Z" opacity="0.2" class="WSWUlzNe_1"></path><path d="M141.38,64.68l11-11a46.62,46.62,0,0,1,65.94,0h0a46.62,46.62,0,0,1,0,65.94L193.94,144,183.6,154.34a46.63,46.63,0,0,1-66-.05h0A46.48,46.48,0,0,1,104,120.06" fill="none" stroke="currentColor" stroke-linecap="round" stroke-linejoin="round" stroke-width="16" class="WSWUlzNe_2"></path><path d="M114.62,191.32l-11,11a46.63,46.63,0,0,1-66-.05h0a46.63,46.63,0,0,1,.06-65.89L72.4,101.66a46.62,46.62,0,0,1,65.94,0h0A46.45,46.45,0,0,1,152,135.94" fill="none" stroke="currentColor" stroke-linecap="round" stroke-linejoin="round" stroke-width="16" class="WSWUlzNe_3"></path><style data-made-with="vivus-instant">.WSWUlzNe_0{stroke-dasharray:1024 1026;stroke-dashoffset:1025;animation:WSWUlzNe_draw_0 7200ms linear 0ms infinite,WSWUlzNe_fade 7200ms linear 0ms infinite;}.WSWUlzNe_1{stroke-dasharray:589 591;stroke-dashoffset:590;animation:WSWUlzNe_draw_1 7200ms linear 0ms infinite,WSWUlzNe_fade 7200ms linear 0ms infinite;}.WSWUlzNe_2{stroke-dasharray:323 325;stroke-dashoffset:324;animation:WSWUlzNe_draw_2 7200ms linear 0ms infinite,WSWUlzNe_fade 7200ms linear 0ms infinite;}.WSWUlzNe_3{stroke-dasharray:323 325;stroke-dashoffset:324;animation:WSWUlzNe_draw_3 7200ms linear 0ms infinite,WSWUlzNe_fade 7200ms linear 0ms infinite;}@keyframes WSWUlzNe_draw{100%{stroke-dashoffset:0;}}@keyframes WSWUlzNe_fade{0%{stroke-opacity:1;}94.44444444444444%{stroke-opacity:1;}100%{stroke-opacity:0;}}@keyframes WSWUlzNe_draw_0{11.11111111111111%{stroke-dashoffset: 1025}38.88888888888889%{ stroke-dashoffset: 0;}100%{ stroke-dashoffset: 0;}}@keyframes WSWUlzNe_draw_1{15.740740740740739%{stroke-dashoffset: 590}43.51851851851851%{ stroke-dashoffset: 0;}100%{ stroke-dashoffset: 0;}}@keyframes WSWUlzNe_draw_2{20.37037037037037%{stroke-dashoffset: 324}48.148148148148145%{ stroke-dashoffset: 0;}100%{ stroke-dashoffset: 0;}}@keyframes WSWUlzNe_draw_3{25%{stroke-dashoffset: 324}52.77777777777778%{ stroke-dashoffset: 0;}100%{ stroke-dashoffset: 0;}}</style></svg>