<svg xmlns="http://www.w3.org/2000/svg" viewBox="0 0 256 256" style=""><path width="256" height="256" fill="none" d="M0 0 L256 0 L256 256 L0 256 Z" class="JegfLWoc_0"></path><path d="M208,88H48a8,8,0,0,0-8,8V208a8,8,0,0,0,8,8H208a8,8,0,0,0,8-8V96A8,8,0,0,0,208,88Zm-80,72a20,20,0,1,1,20-20A20,20,0,0,1,128,160Z" opacity="0.2" class="JegfLWoc_1"></path><path width="176" height="128" fill="none" stroke="currentColor" stroke-linecap="round" stroke-linejoin="round" stroke-width="16" d="M 48,88 L 208,88 A 8,8,0,0,1,216,96 L 216,208 A 8,8,0,0,1,208,216 L 48,216 A 8,8,0,0,1,40,208 L 40,96 A 8,8,0,0,1,48,88" class="JegfLWoc_2"></path><path d="M88,88V56a40,40,0,0,1,80,0V88" fill="none" stroke="currentColor" stroke-linecap="round" stroke-linejoin="round" stroke-width="16" class="JegfLWoc_3"></path><path fill="none" stroke="currentColor" stroke-linecap="round" stroke-linejoin="round" stroke-width="16" d="M108,140A20,20 0,1,1 148,140A20,20 0,1,1 108,140" class="JegfLWoc_4"></path><path fill="none" stroke="currentColor" stroke-linecap="round" stroke-linejoin="round" stroke-width="16" d="M128,160L128,184" class="JegfLWoc_5"></path><style data-made-with="vivus-instant">.JegfLWoc_0{stroke-dasharray:1024 1026;stroke-dashoffset:1025;animation:JegfLWoc_draw_0 7200ms linear 0ms infinite,JegfLWoc_fade 7200ms linear 0ms infinite;}.JegfLWoc_1{stroke-dasharray:720 722;stroke-dashoffset:721;animation:JegfLWoc_draw_1 7200ms linear 0ms infinite,JegfLWoc_fade 7200ms linear 0ms infinite;}.JegfLWoc_2{stroke-dasharray:595 597;stroke-dashoffset:596;animation:JegfLWoc_draw_2 7200ms linear 0ms infinite,JegfLWoc_fade 7200ms linear 0ms infinite;}.JegfLWoc_3{stroke-dasharray:190 192;stroke-dashoffset:191;animation:JegfLWoc_draw_3 7200ms linear 0ms infinite,JegfLWoc_fade 7200ms linear 0ms infinite;}.JegfLWoc_4{stroke-dasharray:126 128;stroke-dashoffset:127;animation:JegfLWoc_draw_4 7200ms linear 0ms infinite,JegfLWoc_fade 7200ms linear 0ms infinite;}.JegfLWoc_5{stroke-dasharray:24 26;stroke-dashoffset:25;animation:JegfLWoc_draw_5 7200ms linear 0ms infinite,JegfLWoc_fade 7200ms linear 0ms infinite;}@keyframes JegfLWoc_draw{100%{stroke-dashoffset:0;}}@keyframes JegfLWoc_fade{0%{stroke-opacity:1;}94.44444444444444%{stroke-opacity:1;}100%{stroke-opacity:0;}}@keyframes JegfLWoc_draw_0{11.11111111111111%{stroke-dashoffset: 1025}38.88888888888889%{ stroke-dashoffset: 0;}100%{ stroke-dashoffset: 0;}}@keyframes JegfLWoc_draw_1{13.88888888888889%{stroke-dashoffset: 721}41.66666666666667%{ stroke-dashoffset: 0;}100%{ stroke-dashoffset: 0;}}@keyframes JegfLWoc_draw_2{16.666666666666664%{stroke-dashoffset: 596}44.44444444444444%{ stroke-dashoffset: 0;}100%{ stroke-dashoffset: 0;}}@keyframes JegfLWoc_draw_3{19.444444444444446%{stroke-dashoffset: 191}47.22222222222222%{ stroke-dashoffset: 0;}100%{ stroke-dashoffset: 0;}}@keyframes JegfLWoc_draw_4{22.22222222222222%{stroke-dashoffset: 127}50%{ stroke-dashoffset: 0;}100%{ stroke-dashoffset: 0;}}@keyframes JegfLWoc_draw_5{25%{stroke-dashoffset: 25}52.77777777777778%{ stroke-dashoffset: 0;}100%{ stroke-dashoffset: 0;}}</style></svg>