<svg xmlns="http://www.w3.org/2000/svg" viewBox="0 0 256 256" style=""><path width="256" height="256" fill="none" d="M0 0 L256 0 L256 256 L0 256 Z" class="PosaZUrN_0"></path><path d="M160,160h40a40,40,0,0,0,0-80H160Z" opacity="0.2" class="PosaZUrN_1"></path><path d="M160,80V200.67a8,8,0,0,0,3.56,6.65l11,7.33a8,8,0,0,0,12.2-4.72L200,160" fill="none" stroke="currentColor" stroke-linecap="round" stroke-linejoin="round" stroke-width="16" class="PosaZUrN_2"></path><path d="M40,200a8,8,0,0,0,13.15,6.12C105.55,162.16,160,160,160,160h40a40,40,0,0,0,0-80H160S105.55,77.84,53.15,33.89A8,8,0,0,0,40,40Z" fill="none" stroke="currentColor" stroke-linecap="round" stroke-linejoin="round" stroke-width="16" class="PosaZUrN_3"></path><style data-made-with="vivus-instant">.PosaZUrN_0{stroke-dasharray:1024 1026;stroke-dashoffset:1025;animation:PosaZUrN_draw_0 7200ms linear 0ms infinite,PosaZUrN_fade 7200ms linear 0ms infinite;}.PosaZUrN_1{stroke-dasharray:286 288;stroke-dashoffset:287;animation:PosaZUrN_draw_1 7200ms linear 0ms infinite,PosaZUrN_fade 7200ms linear 0ms infinite;}.PosaZUrN_2{stroke-dasharray:209 211;stroke-dashoffset:210;animation:PosaZUrN_draw_2 7200ms linear 0ms infinite,PosaZUrN_fade 7200ms linear 0ms infinite;}.PosaZUrN_3{stroke-dasharray:639 641;stroke-dashoffset:640;animation:PosaZUrN_draw_3 7200ms linear 0ms infinite,PosaZUrN_fade 7200ms linear 0ms infinite;}@keyframes PosaZUrN_draw{100%{stroke-dashoffset:0;}}@keyframes PosaZUrN_fade{0%{stroke-opacity:1;}94.44444444444444%{stroke-opacity:1;}100%{stroke-opacity:0;}}@keyframes PosaZUrN_draw_0{11.11111111111111%{stroke-dashoffset: 1025}38.88888888888889%{ stroke-dashoffset: 0;}100%{ stroke-dashoffset: 0;}}@keyframes PosaZUrN_draw_1{15.740740740740739%{stroke-dashoffset: 287}43.51851851851851%{ stroke-dashoffset: 0;}100%{ stroke-dashoffset: 0;}}@keyframes PosaZUrN_draw_2{20.37037037037037%{stroke-dashoffset: 210}48.148148148148145%{ stroke-dashoffset: 0;}100%{ stroke-dashoffset: 0;}}@keyframes PosaZUrN_draw_3{25%{stroke-dashoffset: 640}52.77777777777778%{ stroke-dashoffset: 0;}100%{ stroke-dashoffset: 0;}}</style></svg>