<svg xmlns="http://www.w3.org/2000/svg" viewBox="0 0 256 256" style=""><path width="256" height="256" fill="none" d="M0 0 L256 0 L256 256 L0 256 Z" class="CqvPdhmo_0"></path><path width="80" height="144" opacity="0.2" d="M 128,24 L 128,24 A 40,40,0,0,1,168,64 L 168,128 A 40,40,0,0,1,128,168 L 128,168 A 40,40,0,0,1,88,128 L 88,64 A 40,40,0,0,1,128,24" class="CqvPdhmo_1"></path><path width="80" height="144" fill="none" stroke="currentColor" stroke-linecap="round" stroke-linejoin="round" stroke-width="16" d="M 128,24 L 128,24 A 40,40,0,0,1,168,64 L 168,128 A 40,40,0,0,1,128,168 L 128,168 A 40,40,0,0,1,88,128 L 88,64 A 40,40,0,0,1,128,24" class="CqvPdhmo_2"></path><path fill="none" stroke="currentColor" stroke-linecap="round" stroke-linejoin="round" stroke-width="16" d="M128,200L128,240" class="CqvPdhmo_3"></path><path d="M200,128a72,72,0,0,1-144,0" fill="none" stroke="currentColor" stroke-linecap="round" stroke-linejoin="round" stroke-width="16" class="CqvPdhmo_4"></path><style data-made-with="vivus-instant">.CqvPdhmo_0{stroke-dasharray:1024 1026;stroke-dashoffset:1025;animation:CqvPdhmo_draw_0 7200ms linear 0ms infinite,CqvPdhmo_fade 7200ms linear 0ms infinite;}.CqvPdhmo_1{stroke-dasharray:380 382;stroke-dashoffset:381;animation:CqvPdhmo_draw_1 7200ms linear 0ms infinite,CqvPdhmo_fade 7200ms linear 0ms infinite;}.CqvPdhmo_2{stroke-dasharray:380 382;stroke-dashoffset:381;animation:CqvPdhmo_draw_2 7200ms linear 0ms infinite,CqvPdhmo_fade 7200ms linear 0ms infinite;}.CqvPdhmo_3{stroke-dasharray:40 42;stroke-dashoffset:41;animation:CqvPdhmo_draw_3 7200ms linear 0ms infinite,CqvPdhmo_fade 7200ms linear 0ms infinite;}.CqvPdhmo_4{stroke-dasharray:227 229;stroke-dashoffset:228;animation:CqvPdhmo_draw_4 7200ms linear 0ms infinite,CqvPdhmo_fade 7200ms linear 0ms infinite;}@keyframes CqvPdhmo_draw{100%{stroke-dashoffset:0;}}@keyframes CqvPdhmo_fade{0%{stroke-opacity:1;}94.44444444444444%{stroke-opacity:1;}100%{stroke-opacity:0;}}@keyframes CqvPdhmo_draw_0{11.11111111111111%{stroke-dashoffset: 1025}38.88888888888889%{ stroke-dashoffset: 0;}100%{ stroke-dashoffset: 0;}}@keyframes CqvPdhmo_draw_1{14.583333333333334%{stroke-dashoffset: 381}42.36111111111111%{ stroke-dashoffset: 0;}100%{ stroke-dashoffset: 0;}}@keyframes CqvPdhmo_draw_2{18.055555555555554%{stroke-dashoffset: 381}45.83333333333333%{ stroke-dashoffset: 0;}100%{ stroke-dashoffset: 0;}}@keyframes CqvPdhmo_draw_3{21.52777777777778%{stroke-dashoffset: 41}49.30555555555556%{ stroke-dashoffset: 0;}100%{ stroke-dashoffset: 0;}}@keyframes CqvPdhmo_draw_4{25%{stroke-dashoffset: 228}52.77777777777778%{ stroke-dashoffset: 0;}100%{ stroke-dashoffset: 0;}}</style></svg>