<svg xmlns="http://www.w3.org/2000/svg" viewBox="0 0 256 256" style=""><path width="256" height="256" fill="none" d="M0 0 L256 0 L256 256 L0 256 Z" class="xtNWOSwY_0"></path><path width="64" height="120" opacity="0.2" d="M 80,24 L 128,24 A 8,8,0,0,1,136,32 L 136,136 A 8,8,0,0,1,128,144 L 80,144 A 8,8,0,0,1,72,136 L 72,32 A 8,8,0,0,1,80,24" class="xtNWOSwY_1"></path><path fill="none" stroke="currentColor" stroke-linecap="round" stroke-linejoin="round" stroke-width="16" d="M32,216L224,216" class="xtNWOSwY_2"></path><path fill="none" stroke="currentColor" stroke-linecap="round" stroke-linejoin="round" stroke-width="16" d="M72,176L136,176" class="xtNWOSwY_3"></path><path width="64" height="120" fill="none" stroke="currentColor" stroke-linecap="round" stroke-linejoin="round" stroke-width="16" d="M 80,24 L 128,24 A 8,8,0,0,1,136,32 L 136,136 A 8,8,0,0,1,128,144 L 80,144 A 8,8,0,0,1,72,136 L 72,32 A 8,8,0,0,1,80,24" class="xtNWOSwY_4"></path><path d="M136,72a80,80,0,0,1,48,144" fill="none" stroke="currentColor" stroke-linecap="round" stroke-linejoin="round" stroke-width="16" class="xtNWOSwY_5"></path><style data-made-with="vivus-instant">.xtNWOSwY_0{stroke-dasharray:1024 1026;stroke-dashoffset:1025;animation:xtNWOSwY_draw_0 7200ms linear 0ms infinite,xtNWOSwY_fade 7200ms linear 0ms infinite;}.xtNWOSwY_1{stroke-dasharray:355 357;stroke-dashoffset:356;animation:xtNWOSwY_draw_1 7200ms linear 0ms infinite,xtNWOSwY_fade 7200ms linear 0ms infinite;}.xtNWOSwY_2{stroke-dasharray:192 194;stroke-dashoffset:193;animation:xtNWOSwY_draw_2 7200ms linear 0ms infinite,xtNWOSwY_fade 7200ms linear 0ms infinite;}.xtNWOSwY_3{stroke-dasharray:64 66;stroke-dashoffset:65;animation:xtNWOSwY_draw_3 7200ms linear 0ms infinite,xtNWOSwY_fade 7200ms linear 0ms infinite;}.xtNWOSwY_4{stroke-dasharray:355 357;stroke-dashoffset:356;animation:xtNWOSwY_draw_4 7200ms linear 0ms infinite,xtNWOSwY_fade 7200ms linear 0ms infinite;}.xtNWOSwY_5{stroke-dasharray:200 202;stroke-dashoffset:201;animation:xtNWOSwY_draw_5 7200ms linear 0ms infinite,xtNWOSwY_fade 7200ms linear 0ms infinite;}@keyframes xtNWOSwY_draw{100%{stroke-dashoffset:0;}}@keyframes xtNWOSwY_fade{0%{stroke-opacity:1;}94.44444444444444%{stroke-opacity:1;}100%{stroke-opacity:0;}}@keyframes xtNWOSwY_draw_0{11.11111111111111%{stroke-dashoffset: 1025}38.88888888888889%{ stroke-dashoffset: 0;}100%{ stroke-dashoffset: 0;}}@keyframes xtNWOSwY_draw_1{13.88888888888889%{stroke-dashoffset: 356}41.66666666666667%{ stroke-dashoffset: 0;}100%{ stroke-dashoffset: 0;}}@keyframes xtNWOSwY_draw_2{16.666666666666664%{stroke-dashoffset: 193}44.44444444444444%{ stroke-dashoffset: 0;}100%{ stroke-dashoffset: 0;}}@keyframes xtNWOSwY_draw_3{19.444444444444446%{stroke-dashoffset: 65}47.22222222222222%{ stroke-dashoffset: 0;}100%{ stroke-dashoffset: 0;}}@keyframes xtNWOSwY_draw_4{22.22222222222222%{stroke-dashoffset: 356}50%{ stroke-dashoffset: 0;}100%{ stroke-dashoffset: 0;}}@keyframes xtNWOSwY_draw_5{25%{stroke-dashoffset: 201}52.77777777777778%{ stroke-dashoffset: 0;}100%{ stroke-dashoffset: 0;}}</style></svg>