<svg xmlns="http://www.w3.org/2000/svg" viewBox="0 0 256 256" style=""><path width="256" height="256" fill="none" d="M0 0 L256 0 L256 256 L0 256 Z" class="KApEDhii_0"></path><path d="M128,129.09,32.7,76.93a8,8,0,0,0-.7,3.25v95.64a8,8,0,0,0,4.16,7l88,48.18a8,8,0,0,0,3.84,1Z" opacity="0.2" class="KApEDhii_1"></path><path fill="none" stroke="currentColor" stroke-linecap="round" stroke-linejoin="round" stroke-width="16" d="M32.7,76.92L128,129.08L223.3,76.92" class="KApEDhii_2"></path><path fill="none" stroke="currentColor" stroke-linecap="round" stroke-linejoin="round" stroke-width="16" d="M128,129.09L128,231.97" class="KApEDhii_3"></path><path d="M219.84,182.84l-88,48.18a8,8,0,0,1-7.68,0l-88-48.18a8,8,0,0,1-4.16-7V80.18a8,8,0,0,1,4.16-7l88-48.18a8,8,0,0,1,7.68,0l88,48.18a8,8,0,0,1,4.16,7v95.64A8,8,0,0,1,219.84,182.84Z" fill="none" stroke="currentColor" stroke-linecap="round" stroke-linejoin="round" stroke-width="16" class="KApEDhii_4"></path><path fill="none" stroke="currentColor" stroke-linecap="round" stroke-linejoin="round" stroke-width="16" d="M81.56,48.31L176,100L176,152" class="KApEDhii_5"></path><style data-made-with="vivus-instant">.KApEDhii_0{stroke-dasharray:1024 1026;stroke-dashoffset:1025;animation:KApEDhii_draw_0 7200ms linear 0ms infinite,KApEDhii_fade 7200ms linear 0ms infinite;}.KApEDhii_1{stroke-dasharray:424 426;stroke-dashoffset:425;animation:KApEDhii_draw_1 7200ms linear 0ms infinite,KApEDhii_fade 7200ms linear 0ms infinite;}.KApEDhii_2{stroke-dasharray:218 220;stroke-dashoffset:219;animation:KApEDhii_draw_2 7200ms linear 0ms infinite,KApEDhii_fade 7200ms linear 0ms infinite;}.KApEDhii_3{stroke-dasharray:103 105;stroke-dashoffset:104;animation:KApEDhii_draw_3 7200ms linear 0ms infinite,KApEDhii_fade 7200ms linear 0ms infinite;}.KApEDhii_4{stroke-dasharray:643 645;stroke-dashoffset:644;animation:KApEDhii_draw_4 7200ms linear 0ms infinite,KApEDhii_fade 7200ms linear 0ms infinite;}.KApEDhii_5{stroke-dasharray:160 162;stroke-dashoffset:161;animation:KApEDhii_draw_5 7200ms linear 0ms infinite,KApEDhii_fade 7200ms linear 0ms infinite;}@keyframes KApEDhii_draw{100%{stroke-dashoffset:0;}}@keyframes KApEDhii_fade{0%{stroke-opacity:1;}94.44444444444444%{stroke-opacity:1;}100%{stroke-opacity:0;}}@keyframes KApEDhii_draw_0{11.11111111111111%{stroke-dashoffset: 1025}38.88888888888889%{ stroke-dashoffset: 0;}100%{ stroke-dashoffset: 0;}}@keyframes KApEDhii_draw_1{13.88888888888889%{stroke-dashoffset: 425}41.66666666666667%{ stroke-dashoffset: 0;}100%{ stroke-dashoffset: 0;}}@keyframes KApEDhii_draw_2{16.666666666666664%{stroke-dashoffset: 219}44.44444444444444%{ stroke-dashoffset: 0;}100%{ stroke-dashoffset: 0;}}@keyframes KApEDhii_draw_3{19.444444444444446%{stroke-dashoffset: 104}47.22222222222222%{ stroke-dashoffset: 0;}100%{ stroke-dashoffset: 0;}}@keyframes KApEDhii_draw_4{22.22222222222222%{stroke-dashoffset: 644}50%{ stroke-dashoffset: 0;}100%{ stroke-dashoffset: 0;}}@keyframes KApEDhii_draw_5{25%{stroke-dashoffset: 161}52.77777777777778%{ stroke-dashoffset: 0;}100%{ stroke-dashoffset: 0;}}</style></svg>