<svg xmlns="http://www.w3.org/2000/svg" viewBox="0 0 256 256" style=""><path width="256" height="256" fill="none" d="M0 0 L256 0 L256 256 L0 256 Z" class="ZHMoMNBa_0"></path><path d="M128,192a24,24,0,0,1,24-24h46.21a24,24,0,0,0,23.4-18.65A96.48,96.48,0,0,0,224,127.17c-.45-52.82-44.16-95.7-97-95.17a96,96,0,0,0-95,96c0,41.81,26.73,73.44,64,86.61A24,24,0,0,0,128,192Z" opacity="0.2" class="ZHMoMNBa_1"></path><path d="M128,192a24,24,0,0,1,24-24h46.21a24,24,0,0,0,23.4-18.65A96.48,96.48,0,0,0,224,127.17c-.45-52.82-44.16-95.7-97-95.17a96,96,0,0,0-95,96c0,41.81,26.73,73.44,64,86.61A24,24,0,0,0,128,192Z" fill="none" stroke="currentColor" stroke-linecap="round" stroke-linejoin="round" stroke-width="16" class="ZHMoMNBa_2"></path><path d="M116,76A12,12 0,1,1 140,76A12,12 0,1,1 116,76" class="ZHMoMNBa_3"></path><path d="M72,100A12,12 0,1,1 96,100A12,12 0,1,1 72,100" class="ZHMoMNBa_4"></path><path d="M72,156A12,12 0,1,1 96,156A12,12 0,1,1 72,156" class="ZHMoMNBa_5"></path><path d="M160,100A12,12 0,1,1 184,100A12,12 0,1,1 160,100" class="ZHMoMNBa_6"></path><style data-made-with="vivus-instant">.ZHMoMNBa_0{stroke-dasharray:1024 1026;stroke-dashoffset:1025;animation:ZHMoMNBa_draw_0 7200ms linear 0ms infinite,ZHMoMNBa_fade 7200ms linear 0ms infinite;}.ZHMoMNBa_1{stroke-dasharray:601 603;stroke-dashoffset:602;animation:ZHMoMNBa_draw_1 7200ms linear 0ms infinite,ZHMoMNBa_fade 7200ms linear 0ms infinite;}.ZHMoMNBa_2{stroke-dasharray:601 603;stroke-dashoffset:602;animation:ZHMoMNBa_draw_2 7200ms linear 0ms infinite,ZHMoMNBa_fade 7200ms linear 0ms infinite;}.ZHMoMNBa_3{stroke-dasharray:76 78;stroke-dashoffset:77;animation:ZHMoMNBa_draw_3 7200ms linear 0ms infinite,ZHMoMNBa_fade 7200ms linear 0ms infinite;}.ZHMoMNBa_4{stroke-dasharray:76 78;stroke-dashoffset:77;animation:ZHMoMNBa_draw_4 7200ms linear 0ms infinite,ZHMoMNBa_fade 7200ms linear 0ms infinite;}.ZHMoMNBa_5{stroke-dasharray:76 78;stroke-dashoffset:77;animation:ZHMoMNBa_draw_5 7200ms linear 0ms infinite,ZHMoMNBa_fade 7200ms linear 0ms infinite;}.ZHMoMNBa_6{stroke-dasharray:76 78;stroke-dashoffset:77;animation:ZHMoMNBa_draw_6 7200ms linear 0ms infinite,ZHMoMNBa_fade 7200ms linear 0ms infinite;}@keyframes ZHMoMNBa_draw{100%{stroke-dashoffset:0;}}@keyframes ZHMoMNBa_fade{0%{stroke-opacity:1;}94.44444444444444%{stroke-opacity:1;}100%{stroke-opacity:0;}}@keyframes ZHMoMNBa_draw_0{11.11111111111111%{stroke-dashoffset: 1025}38.88888888888889%{ stroke-dashoffset: 0;}100%{ stroke-dashoffset: 0;}}@keyframes ZHMoMNBa_draw_1{13.425925925925924%{stroke-dashoffset: 602}41.2037037037037%{ stroke-dashoffset: 0;}100%{ stroke-dashoffset: 0;}}@keyframes ZHMoMNBa_draw_2{15.740740740740739%{stroke-dashoffset: 602}43.51851851851851%{ stroke-dashoffset: 0;}100%{ stroke-dashoffset: 0;}}@keyframes ZHMoMNBa_draw_3{18.055555555555554%{stroke-dashoffset: 77}45.83333333333333%{ stroke-dashoffset: 0;}100%{ stroke-dashoffset: 0;}}@keyframes ZHMoMNBa_draw_4{20.37037037037037%{stroke-dashoffset: 77}48.148148148148145%{ stroke-dashoffset: 0;}100%{ stroke-dashoffset: 0;}}@keyframes ZHMoMNBa_draw_5{22.685185185185183%{stroke-dashoffset: 77}50.462962962962955%{ stroke-dashoffset: 0;}100%{ stroke-dashoffset: 0;}}@keyframes ZHMoMNBa_draw_6{25%{stroke-dashoffset: 77}52.77777777777778%{ stroke-dashoffset: 0;}100%{ stroke-dashoffset: 0;}}</style></svg>