<svg xmlns="http://www.w3.org/2000/svg" viewBox="0 0 256 256" style=""><path width="256" height="256" fill="none" d="M0 0 L256 0 L256 256 L0 256 Z" class="qHxMMYwx_0"></path><path d="M209.72,101.57,188.61,65a18,18,0,0,0-31.2,18L133.18,41A18,18,0,1,0,102,59L96.28,49A18,18,0,1,0,65.1,67L77.81,89l5.73,10a18,18,0,1,1,31.17-18l23.88,41.26A18,18,0,0,1,170.14,105l20.2,35A71.67,71.67,0,0,1,199,187.75h0A72,72,0,0,0,209.72,101.57Z" opacity="0.2" class="qHxMMYwx_1"></path><path fill="none" stroke="currentColor" stroke-linecap="round" stroke-linejoin="round" stroke-width="16" d="M168,8L168,24" class="qHxMMYwx_2"></path><path fill="none" stroke="currentColor" stroke-linecap="round" stroke-linejoin="round" stroke-width="16" d="M208,21.02L200,34.13" class="qHxMMYwx_3"></path><path fill="none" stroke="currentColor" stroke-linecap="round" stroke-linejoin="round" stroke-width="16" d="M235.66,56L220.62,60.85" class="qHxMMYwx_4"></path><path d="M83.54,99,77.81,89a18,18,0,1,0-31.18,18l19,32.91" fill="none" stroke="currentColor" stroke-linecap="round" stroke-linejoin="round" stroke-width="16" class="qHxMMYwx_5"></path><path d="M109.55,144l-26-45a18,18,0,1,1,31.17-18l36.45,63" fill="none" stroke="currentColor" stroke-linecap="round" stroke-linejoin="round" stroke-width="16" class="qHxMMYwx_6"></path><path d="M102,59,96.28,49A18,18,0,1,0,65.1,67L77.81,89" fill="none" stroke="currentColor" stroke-linecap="round" stroke-linejoin="round" stroke-width="16" class="qHxMMYwx_7"></path><path d="M114.71,81,102,59a18,18,0,1,1,31.17-18l37,64" fill="none" stroke="currentColor" stroke-linecap="round" stroke-linejoin="round" stroke-width="16" class="qHxMMYwx_8"></path><path d="M199,187.76a72,72,0,0,0,10.7-86.19L188.61,65a18,18,0,0,0-31.18,18" fill="none" stroke="currentColor" stroke-linecap="round" stroke-linejoin="round" stroke-width="16" class="qHxMMYwx_9"></path><path d="M81.81,168,61.59,133a18,18,0,0,0-31.18,18L40,167.59,65.63,212a72,72,0,0,0,124.71-72l-20.2-35A18,18,0,1,0,139,123" fill="none" stroke="currentColor" stroke-linecap="round" stroke-linejoin="round" stroke-width="16" class="qHxMMYwx_10"></path><style data-made-with="vivus-instant">.qHxMMYwx_0{stroke-dasharray:1024 1026;stroke-dashoffset:1025;animation:qHxMMYwx_draw_0 7200ms linear 0ms infinite,qHxMMYwx_fade 7200ms linear 0ms infinite;}.qHxMMYwx_1{stroke-dasharray:652 654;stroke-dashoffset:653;animation:qHxMMYwx_draw_1 7200ms linear 0ms infinite,qHxMMYwx_fade 7200ms linear 0ms infinite;}.qHxMMYwx_2{stroke-dasharray:16 18;stroke-dashoffset:17;animation:qHxMMYwx_draw_2 7200ms linear 0ms infinite,qHxMMYwx_fade 7200ms linear 0ms infinite;}.qHxMMYwx_3{stroke-dasharray:16 18;stroke-dashoffset:17;animation:qHxMMYwx_draw_3 7200ms linear 0ms infinite,qHxMMYwx_fade 7200ms linear 0ms infinite;}.qHxMMYwx_4{stroke-dasharray:16 18;stroke-dashoffset:17;animation:qHxMMYwx_draw_4 7200ms linear 0ms infinite,qHxMMYwx_fade 7200ms linear 0ms infinite;}.qHxMMYwx_5{stroke-dasharray:107 109;stroke-dashoffset:108;animation:qHxMMYwx_draw_5 7200ms linear 0ms infinite,qHxMMYwx_fade 7200ms linear 0ms infinite;}.qHxMMYwx_6{stroke-dasharray:182 184;stroke-dashoffset:183;animation:qHxMMYwx_draw_6 7200ms linear 0ms infinite,qHxMMYwx_fade 7200ms linear 0ms infinite;}.qHxMMYwx_7{stroke-dasharray:94 96;stroke-dashoffset:95;animation:qHxMMYwx_draw_7 7200ms linear 0ms infinite,qHxMMYwx_fade 7200ms linear 0ms infinite;}.qHxMMYwx_8{stroke-dasharray:157 159;stroke-dashoffset:158;animation:qHxMMYwx_draw_8 7200ms linear 0ms infinite,qHxMMYwx_fade 7200ms linear 0ms infinite;}.qHxMMYwx_9{stroke-dasharray:193 195;stroke-dashoffset:194;animation:qHxMMYwx_draw_9 7200ms linear 0ms infinite,qHxMMYwx_fade 7200ms linear 0ms infinite;}.qHxMMYwx_10{stroke-dasharray:493 495;stroke-dashoffset:494;animation:qHxMMYwx_draw_10 7200ms linear 0ms infinite,qHxMMYwx_fade 7200ms linear 0ms infinite;}@keyframes qHxMMYwx_draw{100%{stroke-dashoffset:0;}}@keyframes qHxMMYwx_fade{0%{stroke-opacity:1;}94.44444444444444%{stroke-opacity:1;}100%{stroke-opacity:0;}}@keyframes qHxMMYwx_draw_0{11.11111111111111%{stroke-dashoffset: 1025}38.88888888888889%{ stroke-dashoffset: 0;}100%{ stroke-dashoffset: 0;}}@keyframes qHxMMYwx_draw_1{12.5%{stroke-dashoffset: 653}40.27777777777778%{ stroke-dashoffset: 0;}100%{ stroke-dashoffset: 0;}}@keyframes qHxMMYwx_draw_2{13.88888888888889%{stroke-dashoffset: 17}41.66666666666667%{ stroke-dashoffset: 0;}100%{ stroke-dashoffset: 0;}}@keyframes qHxMMYwx_draw_3{15.277777777777779%{stroke-dashoffset: 17}43.05555555555556%{ stroke-dashoffset: 0;}100%{ stroke-dashoffset: 0;}}@keyframes qHxMMYwx_draw_4{16.666666666666664%{stroke-dashoffset: 17}44.44444444444444%{ stroke-dashoffset: 0;}100%{ stroke-dashoffset: 0;}}@keyframes qHxMMYwx_draw_5{18.055555555555554%{stroke-dashoffset: 108}45.83333333333333%{ stroke-dashoffset: 0;}100%{ stroke-dashoffset: 0;}}@keyframes qHxMMYwx_draw_6{19.444444444444446%{stroke-dashoffset: 183}47.22222222222222%{ stroke-dashoffset: 0;}100%{ stroke-dashoffset: 0;}}@keyframes qHxMMYwx_draw_7{20.833333333333336%{stroke-dashoffset: 95}48.61111111111111%{ stroke-dashoffset: 0;}100%{ stroke-dashoffset: 0;}}@keyframes qHxMMYwx_draw_8{22.22222222222222%{stroke-dashoffset: 158}50%{ stroke-dashoffset: 0;}100%{ stroke-dashoffset: 0;}}@keyframes qHxMMYwx_draw_9{23.61111111111111%{stroke-dashoffset: 194}51.388888888888886%{ stroke-dashoffset: 0;}100%{ stroke-dashoffset: 0;}}@keyframes qHxMMYwx_draw_10{25%{stroke-dashoffset: 494}52.77777777777778%{ stroke-dashoffset: 0;}100%{ stroke-dashoffset: 0;}}</style></svg>