<svg xmlns="http://www.w3.org/2000/svg" viewBox="0 0 256 256" style=""><path width="256" height="256" fill="none" d="M0 0 L256 0 L256 256 L0 256 Z" class="YLiVDTnI_0"></path><path d="M40,184h64v24a8,8,0,0,1-8,8H48a8,8,0,0,1-8-8Z" opacity="0.2" class="YLiVDTnI_1"></path><path width="64" height="176" opacity="0.2" d="M 160,40 L 208,40 A 8,8,0,0,1,216,48 L 216,208 A 8,8,0,0,1,208,216 L 160,216 A 8,8,0,0,1,152,208 L 152,48 A 8,8,0,0,1,160,40" class="YLiVDTnI_2"></path><path width="64" height="176" fill="none" stroke="currentColor" stroke-linecap="round" stroke-linejoin="round" stroke-width="16" d="M 160,40 L 208,40 A 8,8,0,0,1,216,48 L 216,208 A 8,8,0,0,1,208,216 L 160,216 A 8,8,0,0,1,152,208 L 152,48 A 8,8,0,0,1,160,40" class="YLiVDTnI_3"></path><path fill="none" stroke="currentColor" stroke-linecap="round" stroke-linejoin="round" stroke-width="16" d="M152,88L184,88" class="YLiVDTnI_4"></path><path fill="none" stroke="currentColor" stroke-linecap="round" stroke-linejoin="round" stroke-width="16" d="M152,128L184,128" class="YLiVDTnI_5"></path><path fill="none" stroke="currentColor" stroke-linecap="round" stroke-linejoin="round" stroke-width="16" d="M152,168L184,168" class="YLiVDTnI_6"></path><path d="M40,64,72,32l32,32V208a8,8,0,0,1-8,8H48a8,8,0,0,1-8-8Z" fill="none" stroke="currentColor" stroke-linecap="round" stroke-linejoin="round" stroke-width="16" class="YLiVDTnI_7"></path><path fill="none" stroke="currentColor" stroke-linecap="round" stroke-linejoin="round" stroke-width="16" d="M72,72L72,184" class="YLiVDTnI_8"></path><path fill="none" stroke="currentColor" stroke-linecap="round" stroke-linejoin="round" stroke-width="16" d="M104,72L40,72" class="YLiVDTnI_9"></path><path fill="none" stroke="currentColor" stroke-linecap="round" stroke-linejoin="round" stroke-width="16" d="M104,184L40,184" class="YLiVDTnI_10"></path><style data-made-with="vivus-instant">.YLiVDTnI_0{stroke-dasharray:1024 1026;stroke-dashoffset:1025;animation:YLiVDTnI_draw_0 7200ms linear 0ms infinite,YLiVDTnI_fade 7200ms linear 0ms infinite;}.YLiVDTnI_1{stroke-dasharray:186 188;stroke-dashoffset:187;animation:YLiVDTnI_draw_1 7200ms linear 0ms infinite,YLiVDTnI_fade 7200ms linear 0ms infinite;}.YLiVDTnI_2{stroke-dasharray:467 469;stroke-dashoffset:468;animation:YLiVDTnI_draw_2 7200ms linear 0ms infinite,YLiVDTnI_fade 7200ms linear 0ms infinite;}.YLiVDTnI_3{stroke-dasharray:467 469;stroke-dashoffset:468;animation:YLiVDTnI_draw_3 7200ms linear 0ms infinite,YLiVDTnI_fade 7200ms linear 0ms infinite;}.YLiVDTnI_4{stroke-dasharray:32 34;stroke-dashoffset:33;animation:YLiVDTnI_draw_4 7200ms linear 0ms infinite,YLiVDTnI_fade 7200ms linear 0ms infinite;}.YLiVDTnI_5{stroke-dasharray:32 34;stroke-dashoffset:33;animation:YLiVDTnI_draw_5 7200ms linear 0ms infinite,YLiVDTnI_fade 7200ms linear 0ms infinite;}.YLiVDTnI_6{stroke-dasharray:32 34;stroke-dashoffset:33;animation:YLiVDTnI_draw_6 7200ms linear 0ms infinite,YLiVDTnI_fade 7200ms linear 0ms infinite;}.YLiVDTnI_7{stroke-dasharray:452 454;stroke-dashoffset:453;animation:YLiVDTnI_draw_7 7200ms linear 0ms infinite,YLiVDTnI_fade 7200ms linear 0ms infinite;}.YLiVDTnI_8{stroke-dasharray:112 114;stroke-dashoffset:113;animation:YLiVDTnI_draw_8 7200ms linear 0ms infinite,YLiVDTnI_fade 7200ms linear 0ms infinite;}.YLiVDTnI_9{stroke-dasharray:64 66;stroke-dashoffset:65;animation:YLiVDTnI_draw_9 7200ms linear 0ms infinite,YLiVDTnI_fade 7200ms linear 0ms infinite;}.YLiVDTnI_10{stroke-dasharray:64 66;stroke-dashoffset:65;animation:YLiVDTnI_draw_10 7200ms linear 0ms infinite,YLiVDTnI_fade 7200ms linear 0ms infinite;}@keyframes YLiVDTnI_draw{100%{stroke-dashoffset:0;}}@keyframes YLiVDTnI_fade{0%{stroke-opacity:1;}94.44444444444444%{stroke-opacity:1;}100%{stroke-opacity:0;}}@keyframes YLiVDTnI_draw_0{11.11111111111111%{stroke-dashoffset: 1025}38.88888888888889%{ stroke-dashoffset: 0;}100%{ stroke-dashoffset: 0;}}@keyframes YLiVDTnI_draw_1{12.5%{stroke-dashoffset: 187}40.27777777777778%{ stroke-dashoffset: 0;}100%{ stroke-dashoffset: 0;}}@keyframes YLiVDTnI_draw_2{13.88888888888889%{stroke-dashoffset: 468}41.66666666666667%{ stroke-dashoffset: 0;}100%{ stroke-dashoffset: 0;}}@keyframes YLiVDTnI_draw_3{15.277777777777779%{stroke-dashoffset: 468}43.05555555555556%{ stroke-dashoffset: 0;}100%{ stroke-dashoffset: 0;}}@keyframes YLiVDTnI_draw_4{16.666666666666664%{stroke-dashoffset: 33}44.44444444444444%{ stroke-dashoffset: 0;}100%{ stroke-dashoffset: 0;}}@keyframes YLiVDTnI_draw_5{18.055555555555554%{stroke-dashoffset: 33}45.83333333333333%{ stroke-dashoffset: 0;}100%{ stroke-dashoffset: 0;}}@keyframes YLiVDTnI_draw_6{19.444444444444446%{stroke-dashoffset: 33}47.22222222222222%{ stroke-dashoffset: 0;}100%{ stroke-dashoffset: 0;}}@keyframes YLiVDTnI_draw_7{20.833333333333336%{stroke-dashoffset: 453}48.61111111111111%{ stroke-dashoffset: 0;}100%{ stroke-dashoffset: 0;}}@keyframes YLiVDTnI_draw_8{22.22222222222222%{stroke-dashoffset: 113}50%{ stroke-dashoffset: 0;}100%{ stroke-dashoffset: 0;}}@keyframes YLiVDTnI_draw_9{23.61111111111111%{stroke-dashoffset: 65}51.388888888888886%{ stroke-dashoffset: 0;}100%{ stroke-dashoffset: 0;}}@keyframes YLiVDTnI_draw_10{25%{stroke-dashoffset: 65}52.77777777777778%{ stroke-dashoffset: 0;}100%{ stroke-dashoffset: 0;}}</style></svg>