<svg xmlns="http://www.w3.org/2000/svg" viewBox="0 0 256 256" style=""><path width="256" height="256" fill="none" d="M0 0 L256 0 L256 256 L0 256 Z" class="foMnMvoo_0"></path><path d="M164.39,145.34a8,8,0,0,1,7.59-.69l47.16,21.13a8,8,0,0,1,4.8,8.3A48.33,48.33,0,0,1,176,216,136,136,0,0,1,40,80,48.33,48.33,0,0,1,81.92,32.06a8,8,0,0,1,8.3,4.8l21.13,47.2a8,8,0,0,1-.66,7.53L89.32,117a7.93,7.93,0,0,0-.54,7.81c8.27,16.93,25.77,34.22,42.75,42.41a7.92,7.92,0,0,0,7.83-.59Z" opacity="0.2" class="foMnMvoo_1"></path><path d="M164.39,145.34a8,8,0,0,1,7.59-.69l47.16,21.13a8,8,0,0,1,4.8,8.3A48.33,48.33,0,0,1,176,216,136,136,0,0,1,40,80,48.33,48.33,0,0,1,81.92,32.06a8,8,0,0,1,8.3,4.8l21.13,47.2a8,8,0,0,1-.66,7.53L89.32,117a7.93,7.93,0,0,0-.54,7.81c8.27,16.93,25.77,34.22,42.75,42.41a7.92,7.92,0,0,0,7.83-.59Z" fill="none" stroke="currentColor" stroke-linecap="round" stroke-linejoin="round" stroke-width="16" class="foMnMvoo_2"></path><style data-made-with="vivus-instant">.foMnMvoo_0{stroke-dasharray:1024 1026;stroke-dashoffset:1025;animation:foMnMvoo_draw_0 7200ms linear 0ms infinite,foMnMvoo_fade 7200ms linear 0ms infinite;}.foMnMvoo_1{stroke-dasharray:637 639;stroke-dashoffset:638;animation:foMnMvoo_draw_1 7200ms linear 0ms infinite,foMnMvoo_fade 7200ms linear 0ms infinite;}.foMnMvoo_2{stroke-dasharray:637 639;stroke-dashoffset:638;animation:foMnMvoo_draw_2 7200ms linear 0ms infinite,foMnMvoo_fade 7200ms linear 0ms infinite;}@keyframes foMnMvoo_draw{100%{stroke-dashoffset:0;}}@keyframes foMnMvoo_fade{0%{stroke-opacity:1;}94.44444444444444%{stroke-opacity:1;}100%{stroke-opacity:0;}}@keyframes foMnMvoo_draw_0{11.11111111111111%{stroke-dashoffset: 1025}38.88888888888889%{ stroke-dashoffset: 0;}100%{ stroke-dashoffset: 0;}}@keyframes foMnMvoo_draw_1{18.055555555555554%{stroke-dashoffset: 638}45.83333333333333%{ stroke-dashoffset: 0;}100%{ stroke-dashoffset: 0;}}@keyframes foMnMvoo_draw_2{25%{stroke-dashoffset: 638}52.77777777777778%{ stroke-dashoffset: 0;}100%{ stroke-dashoffset: 0;}}</style></svg>