<svg xmlns="http://www.w3.org/2000/svg" viewBox="0 0 256 256" style=""><path width="256" height="256" fill="none" d="M0 0 L256 0 L256 256 L0 256 Z" class="IrCHIflq_0"></path><path opacity="0.2" d="M32,128A96,96 0,1,1 224,128A96,96 0,1,1 32,128" class="IrCHIflq_1"></path><path d="M116,180A12,12 0,1,1 140,180A12,12 0,1,1 116,180" class="IrCHIflq_2"></path><path d="M128,144v-8c17.67,0,32-12.54,32-28s-14.33-28-32-28S96,92.54,96,108v4" fill="none" stroke="currentColor" stroke-linecap="round" stroke-linejoin="round" stroke-width="16" class="IrCHIflq_3"></path><path fill="none" stroke="currentColor" stroke-linecap="round" stroke-linejoin="round" stroke-width="16" d="M32,128A96,96 0,1,1 224,128A96,96 0,1,1 32,128" class="IrCHIflq_4"></path><style data-made-with="vivus-instant">.IrCHIflq_0{stroke-dasharray:1024 1026;stroke-dashoffset:1025;animation:IrCHIflq_draw_0 7200ms linear 0ms infinite,IrCHIflq_fade 7200ms linear 0ms infinite;}.IrCHIflq_1{stroke-dasharray:604 606;stroke-dashoffset:605;animation:IrCHIflq_draw_1 7200ms linear 0ms infinite,IrCHIflq_fade 7200ms linear 0ms infinite;}.IrCHIflq_2{stroke-dasharray:76 78;stroke-dashoffset:77;animation:IrCHIflq_draw_2 7200ms linear 0ms infinite,IrCHIflq_fade 7200ms linear 0ms infinite;}.IrCHIflq_3{stroke-dasharray:154 156;stroke-dashoffset:155;animation:IrCHIflq_draw_3 7200ms linear 0ms infinite,IrCHIflq_fade 7200ms linear 0ms infinite;}.IrCHIflq_4{stroke-dasharray:604 606;stroke-dashoffset:605;animation:IrCHIflq_draw_4 7200ms linear 0ms infinite,IrCHIflq_fade 7200ms linear 0ms infinite;}@keyframes IrCHIflq_draw{100%{stroke-dashoffset:0;}}@keyframes IrCHIflq_fade{0%{stroke-opacity:1;}94.44444444444444%{stroke-opacity:1;}100%{stroke-opacity:0;}}@keyframes IrCHIflq_draw_0{11.11111111111111%{stroke-dashoffset: 1025}38.88888888888889%{ stroke-dashoffset: 0;}100%{ stroke-dashoffset: 0;}}@keyframes IrCHIflq_draw_1{14.583333333333334%{stroke-dashoffset: 605}42.36111111111111%{ stroke-dashoffset: 0;}100%{ stroke-dashoffset: 0;}}@keyframes IrCHIflq_draw_2{18.055555555555554%{stroke-dashoffset: 77}45.83333333333333%{ stroke-dashoffset: 0;}100%{ stroke-dashoffset: 0;}}@keyframes IrCHIflq_draw_3{21.52777777777778%{stroke-dashoffset: 155}49.30555555555556%{ stroke-dashoffset: 0;}100%{ stroke-dashoffset: 0;}}@keyframes IrCHIflq_draw_4{25%{stroke-dashoffset: 605}52.77777777777778%{ stroke-dashoffset: 0;}100%{ stroke-dashoffset: 0;}}</style></svg>