<svg xmlns="http://www.w3.org/2000/svg" viewBox="0 0 256 256" style=""><path width="256" height="256" fill="none" d="M0 0 L256 0 L256 256 L0 256 Z" class="kJRyhXAA_0"></path><path d="M184,120v61.65a8,8,0,0,1-2.34,5.65l-34.35,34.35a8,8,0,0,1-13.57-4.53L128,176Z" opacity="0.2" class="kJRyhXAA_1"></path><path d="M136,72H74.35a8,8,0,0,0-5.65,2.34L34.35,108.69a8,8,0,0,0,4.53,13.57L80,128Z" opacity="0.2" class="kJRyhXAA_2"></path><path d="M94.56,187.82C90.69,196.31,77.65,216,40,216c0-37.65,19.69-50.69,28.18-54.56Z" opacity="0.2" class="kJRyhXAA_3"></path><path d="M191.11,112.89c24-24,25.5-52.55,24.75-65.28a8,8,0,0,0-7.47-7.47c-12.73-.75-41.26.73-65.28,24.75L80,128l48,48Z" fill="none" stroke="currentColor" stroke-linecap="round" stroke-linejoin="round" stroke-width="16" class="kJRyhXAA_4"></path><path d="M136,72H74.35a8,8,0,0,0-5.65,2.34L34.35,108.69a8,8,0,0,0,4.53,13.57L80,128" fill="none" stroke="currentColor" stroke-linecap="round" stroke-linejoin="round" stroke-width="16" class="kJRyhXAA_5"></path><path d="M184,120v61.65a8,8,0,0,1-2.34,5.65l-34.35,34.35a8,8,0,0,1-13.57-4.53L128,176" fill="none" stroke="currentColor" stroke-linecap="round" stroke-linejoin="round" stroke-width="16" class="kJRyhXAA_6"></path><path d="M94.56,187.82C90.69,196.31,77.65,216,40,216c0-37.65,19.69-50.69,28.18-54.56" fill="none" stroke="currentColor" stroke-linecap="round" stroke-linejoin="round" stroke-width="16" class="kJRyhXAA_7"></path><style data-made-with="vivus-instant">.kJRyhXAA_0{stroke-dasharray:1024 1026;stroke-dashoffset:1025;animation:kJRyhXAA_draw_0 7200ms linear 0ms infinite,kJRyhXAA_fade 7200ms linear 0ms infinite;}.kJRyhXAA_1{stroke-dasharray:255 257;stroke-dashoffset:256;animation:kJRyhXAA_draw_1 7200ms linear 0ms infinite,kJRyhXAA_fade 7200ms linear 0ms infinite;}.kJRyhXAA_2{stroke-dasharray:255 257;stroke-dashoffset:256;animation:kJRyhXAA_draw_2 7200ms linear 0ms infinite,kJRyhXAA_fade 7200ms linear 0ms infinite;}.kJRyhXAA_3{stroke-dasharray:168 170;stroke-dashoffset:169;animation:kJRyhXAA_draw_3 7200ms linear 0ms infinite,kJRyhXAA_fade 7200ms linear 0ms infinite;}.kJRyhXAA_4{stroke-dasharray:402 404;stroke-dashoffset:403;animation:kJRyhXAA_draw_4 7200ms linear 0ms infinite,kJRyhXAA_fade 7200ms linear 0ms infinite;}.kJRyhXAA_5{stroke-dasharray:176 178;stroke-dashoffset:177;animation:kJRyhXAA_draw_5 7200ms linear 0ms infinite,kJRyhXAA_fade 7200ms linear 0ms infinite;}.kJRyhXAA_6{stroke-dasharray:176 178;stroke-dashoffset:177;animation:kJRyhXAA_draw_6 7200ms linear 0ms infinite,kJRyhXAA_fade 7200ms linear 0ms infinite;}.kJRyhXAA_7{stroke-dasharray:130 132;stroke-dashoffset:131;animation:kJRyhXAA_draw_7 7200ms linear 0ms infinite,kJRyhXAA_fade 7200ms linear 0ms infinite;}@keyframes kJRyhXAA_draw{100%{stroke-dashoffset:0;}}@keyframes kJRyhXAA_fade{0%{stroke-opacity:1;}94.44444444444444%{stroke-opacity:1;}100%{stroke-opacity:0;}}@keyframes kJRyhXAA_draw_0{11.11111111111111%{stroke-dashoffset: 1025}38.88888888888889%{ stroke-dashoffset: 0;}100%{ stroke-dashoffset: 0;}}@keyframes kJRyhXAA_draw_1{13.095238095238097%{stroke-dashoffset: 256}40.87301587301588%{ stroke-dashoffset: 0;}100%{ stroke-dashoffset: 0;}}@keyframes kJRyhXAA_draw_2{15.07936507936508%{stroke-dashoffset: 256}42.85714285714286%{ stroke-dashoffset: 0;}100%{ stroke-dashoffset: 0;}}@keyframes kJRyhXAA_draw_3{17.06349206349206%{stroke-dashoffset: 169}44.841269841269835%{ stroke-dashoffset: 0;}100%{ stroke-dashoffset: 0;}}@keyframes kJRyhXAA_draw_4{19.04761904761905%{stroke-dashoffset: 403}46.82539682539682%{ stroke-dashoffset: 0;}100%{ stroke-dashoffset: 0;}}@keyframes kJRyhXAA_draw_5{21.03174603174603%{stroke-dashoffset: 177}48.80952380952381%{ stroke-dashoffset: 0;}100%{ stroke-dashoffset: 0;}}@keyframes kJRyhXAA_draw_6{23.015873015873016%{stroke-dashoffset: 177}50.79365079365079%{ stroke-dashoffset: 0;}100%{ stroke-dashoffset: 0;}}@keyframes kJRyhXAA_draw_7{25%{stroke-dashoffset: 131}52.77777777777778%{ stroke-dashoffset: 0;}100%{ stroke-dashoffset: 0;}}</style></svg>