<svg xmlns="http://www.w3.org/2000/svg" viewBox="0 0 256 256" style=""><path width="256" height="256" fill="none" d="M0 0 L256 0 L256 256 L0 256 Z" class="pnUGDiEr_0"></path><path d="M52.69,168l37.65,37.66a8,8,0,0,0,11.32,0l120-120a8,8,0,0,0,0-11.32L184,36.69Z" opacity="0.2" class="pnUGDiEr_1"></path><path fill="none" stroke="currentColor" stroke-linecap="round" stroke-linejoin="round" stroke-width="16" d="M248,144L248,192" class="pnUGDiEr_2"></path><path fill="none" stroke="currentColor" stroke-linecap="round" stroke-linejoin="round" stroke-width="16" d="M184,36.69L52.69,168" class="pnUGDiEr_3"></path><path d="M8.59,164.59A2,2,0,0,0,10,168H52.69l37.65,37.66a8,8,0,0,0,11.32,0l120-120a8,8,0,0,0,0-11.32l-56-56a8,8,0,0,0-11.32,0Z" fill="none" stroke="currentColor" stroke-linecap="round" stroke-linejoin="round" stroke-width="16" class="pnUGDiEr_4"></path><path d="M165.66,141.66l24,24a8,8,0,0,0,5.65,2.34H248" fill="none" stroke="currentColor" stroke-linecap="round" stroke-linejoin="round" stroke-width="16" class="pnUGDiEr_5"></path><style data-made-with="vivus-instant">.pnUGDiEr_0{stroke-dasharray:1024 1026;stroke-dashoffset:1025;animation:pnUGDiEr_draw_0 7200ms linear 0ms infinite,pnUGDiEr_fade 7200ms linear 0ms infinite;}.pnUGDiEr_1{stroke-dasharray:488 490;stroke-dashoffset:489;animation:pnUGDiEr_draw_1 7200ms linear 0ms infinite,pnUGDiEr_fade 7200ms linear 0ms infinite;}.pnUGDiEr_2{stroke-dasharray:48 50;stroke-dashoffset:49;animation:pnUGDiEr_draw_2 7200ms linear 0ms infinite,pnUGDiEr_fade 7200ms linear 0ms infinite;}.pnUGDiEr_3{stroke-dasharray:186 188;stroke-dashoffset:187;animation:pnUGDiEr_draw_3 7200ms linear 0ms infinite,pnUGDiEr_fade 7200ms linear 0ms infinite;}.pnUGDiEr_4{stroke-dasharray:594 596;stroke-dashoffset:595;animation:pnUGDiEr_draw_4 7200ms linear 0ms infinite,pnUGDiEr_fade 7200ms linear 0ms infinite;}.pnUGDiEr_5{stroke-dasharray:93 95;stroke-dashoffset:94;animation:pnUGDiEr_draw_5 7200ms linear 0ms infinite,pnUGDiEr_fade 7200ms linear 0ms infinite;}@keyframes pnUGDiEr_draw{100%{stroke-dashoffset:0;}}@keyframes pnUGDiEr_fade{0%{stroke-opacity:1;}94.44444444444444%{stroke-opacity:1;}100%{stroke-opacity:0;}}@keyframes pnUGDiEr_draw_0{11.11111111111111%{stroke-dashoffset: 1025}38.88888888888889%{ stroke-dashoffset: 0;}100%{ stroke-dashoffset: 0;}}@keyframes pnUGDiEr_draw_1{13.88888888888889%{stroke-dashoffset: 489}41.66666666666667%{ stroke-dashoffset: 0;}100%{ stroke-dashoffset: 0;}}@keyframes pnUGDiEr_draw_2{16.666666666666664%{stroke-dashoffset: 49}44.44444444444444%{ stroke-dashoffset: 0;}100%{ stroke-dashoffset: 0;}}@keyframes pnUGDiEr_draw_3{19.444444444444446%{stroke-dashoffset: 187}47.22222222222222%{ stroke-dashoffset: 0;}100%{ stroke-dashoffset: 0;}}@keyframes pnUGDiEr_draw_4{22.22222222222222%{stroke-dashoffset: 595}50%{ stroke-dashoffset: 0;}100%{ stroke-dashoffset: 0;}}@keyframes pnUGDiEr_draw_5{25%{stroke-dashoffset: 94}52.77777777777778%{ stroke-dashoffset: 0;}100%{ stroke-dashoffset: 0;}}</style></svg>