<svg xmlns="http://www.w3.org/2000/svg" viewBox="0 0 256 256" style=""><path width="256" height="256" fill="none" d="M0 0 L256 0 L256 256 L0 256 Z" class="HIFyYdmV_0"></path><path d="M216,112V56a8,8,0,0,0-8-8H48a8,8,0,0,0-8,8v56c0,96,88,120,88,120S216,208,216,112Z" opacity="0.2" class="HIFyYdmV_1"></path><path d="M216,112V56a8,8,0,0,0-8-8H48a8,8,0,0,0-8,8v56c0,96,88,120,88,120S216,208,216,112Z" fill="none" stroke="currentColor" stroke-linecap="round" stroke-linejoin="round" stroke-width="16" class="HIFyYdmV_2"></path><path fill="none" stroke="currentColor" stroke-linecap="round" stroke-linejoin="round" stroke-width="16" d="M88,136L112,160L168,104" class="HIFyYdmV_3"></path><style data-made-with="vivus-instant">.HIFyYdmV_0{stroke-dasharray:1024 1026;stroke-dashoffset:1025;animation:HIFyYdmV_draw_0 7200ms linear 0ms infinite,HIFyYdmV_fade 7200ms linear 0ms infinite;}.HIFyYdmV_1{stroke-dasharray:617 619;stroke-dashoffset:618;animation:HIFyYdmV_draw_1 7200ms linear 0ms infinite,HIFyYdmV_fade 7200ms linear 0ms infinite;}.HIFyYdmV_2{stroke-dasharray:617 619;stroke-dashoffset:618;animation:HIFyYdmV_draw_2 7200ms linear 0ms infinite,HIFyYdmV_fade 7200ms linear 0ms infinite;}.HIFyYdmV_3{stroke-dasharray:114 116;stroke-dashoffset:115;animation:HIFyYdmV_draw_3 7200ms linear 0ms infinite,HIFyYdmV_fade 7200ms linear 0ms infinite;}@keyframes HIFyYdmV_draw{100%{stroke-dashoffset:0;}}@keyframes HIFyYdmV_fade{0%{stroke-opacity:1;}94.44444444444444%{stroke-opacity:1;}100%{stroke-opacity:0;}}@keyframes HIFyYdmV_draw_0{11.11111111111111%{stroke-dashoffset: 1025}38.88888888888889%{ stroke-dashoffset: 0;}100%{ stroke-dashoffset: 0;}}@keyframes HIFyYdmV_draw_1{15.740740740740739%{stroke-dashoffset: 618}43.51851851851851%{ stroke-dashoffset: 0;}100%{ stroke-dashoffset: 0;}}@keyframes HIFyYdmV_draw_2{20.37037037037037%{stroke-dashoffset: 618}48.148148148148145%{ stroke-dashoffset: 0;}100%{ stroke-dashoffset: 0;}}@keyframes HIFyYdmV_draw_3{25%{stroke-dashoffset: 115}52.77777777777778%{ stroke-dashoffset: 0;}100%{ stroke-dashoffset: 0;}}</style></svg>