<svg xmlns="http://www.w3.org/2000/svg" viewBox="0 0 256 256" style=""><path width="256" height="256" fill="none" d="M0 0 L256 0 L256 256 L0 256 Z" class="EiJqFgVJ_0"></path><path d="M84.27,171.73l-55.09-20.3a7.92,7.92,0,0,1,0-14.86l55.09-20.3,20.3-55.09a7.92,7.92,0,0,1,14.86,0l20.3,55.09,55.09,20.3a7.92,7.92,0,0,1,0,14.86l-55.09,20.3-20.3,55.09a7.92,7.92,0,0,1-14.86,0Z" opacity="0.2" class="EiJqFgVJ_1"></path><path d="M84.27,171.73l-55.09-20.3a7.92,7.92,0,0,1,0-14.86l55.09-20.3,20.3-55.09a7.92,7.92,0,0,1,14.86,0l20.3,55.09,55.09,20.3a7.92,7.92,0,0,1,0,14.86l-55.09,20.3-20.3,55.09a7.92,7.92,0,0,1-14.86,0Z" fill="none" stroke="currentColor" stroke-linecap="round" stroke-linejoin="round" stroke-width="16" class="EiJqFgVJ_2"></path><path fill="none" stroke="currentColor" stroke-linecap="round" stroke-linejoin="round" stroke-width="16" d="M176,16L176,64" class="EiJqFgVJ_3"></path><path fill="none" stroke="currentColor" stroke-linecap="round" stroke-linejoin="round" stroke-width="16" d="M224,72L224,104" class="EiJqFgVJ_4"></path><path fill="none" stroke="currentColor" stroke-linecap="round" stroke-linejoin="round" stroke-width="16" d="M152,40L200,40" class="EiJqFgVJ_5"></path><path fill="none" stroke="currentColor" stroke-linecap="round" stroke-linejoin="round" stroke-width="16" d="M208,88L240,88" class="EiJqFgVJ_6"></path><style data-made-with="vivus-instant">.EiJqFgVJ_0{stroke-dasharray:1024 1026;stroke-dashoffset:1025;animation:EiJqFgVJ_draw_0 7200ms linear 0ms infinite,EiJqFgVJ_fade 7200ms linear 0ms infinite;}.EiJqFgVJ_1{stroke-dasharray:547 549;stroke-dashoffset:548;animation:EiJqFgVJ_draw_1 7200ms linear 0ms infinite,EiJqFgVJ_fade 7200ms linear 0ms infinite;}.EiJqFgVJ_2{stroke-dasharray:547 549;stroke-dashoffset:548;animation:EiJqFgVJ_draw_2 7200ms linear 0ms infinite,EiJqFgVJ_fade 7200ms linear 0ms infinite;}.EiJqFgVJ_3{stroke-dasharray:48 50;stroke-dashoffset:49;animation:EiJqFgVJ_draw_3 7200ms linear 0ms infinite,EiJqFgVJ_fade 7200ms linear 0ms infinite;}.EiJqFgVJ_4{stroke-dasharray:32 34;stroke-dashoffset:33;animation:EiJqFgVJ_draw_4 7200ms linear 0ms infinite,EiJqFgVJ_fade 7200ms linear 0ms infinite;}.EiJqFgVJ_5{stroke-dasharray:48 50;stroke-dashoffset:49;animation:EiJqFgVJ_draw_5 7200ms linear 0ms infinite,EiJqFgVJ_fade 7200ms linear 0ms infinite;}.EiJqFgVJ_6{stroke-dasharray:32 34;stroke-dashoffset:33;animation:EiJqFgVJ_draw_6 7200ms linear 0ms infinite,EiJqFgVJ_fade 7200ms linear 0ms infinite;}@keyframes EiJqFgVJ_draw{100%{stroke-dashoffset:0;}}@keyframes EiJqFgVJ_fade{0%{stroke-opacity:1;}94.44444444444444%{stroke-opacity:1;}100%{stroke-opacity:0;}}@keyframes EiJqFgVJ_draw_0{11.11111111111111%{stroke-dashoffset: 1025}38.88888888888889%{ stroke-dashoffset: 0;}100%{ stroke-dashoffset: 0;}}@keyframes EiJqFgVJ_draw_1{13.425925925925924%{stroke-dashoffset: 548}41.2037037037037%{ stroke-dashoffset: 0;}100%{ stroke-dashoffset: 0;}}@keyframes EiJqFgVJ_draw_2{15.740740740740739%{stroke-dashoffset: 548}43.51851851851851%{ stroke-dashoffset: 0;}100%{ stroke-dashoffset: 0;}}@keyframes EiJqFgVJ_draw_3{18.055555555555554%{stroke-dashoffset: 49}45.83333333333333%{ stroke-dashoffset: 0;}100%{ stroke-dashoffset: 0;}}@keyframes EiJqFgVJ_draw_4{20.37037037037037%{stroke-dashoffset: 33}48.148148148148145%{ stroke-dashoffset: 0;}100%{ stroke-dashoffset: 0;}}@keyframes EiJqFgVJ_draw_5{22.685185185185183%{stroke-dashoffset: 49}50.462962962962955%{ stroke-dashoffset: 0;}100%{ stroke-dashoffset: 0;}}@keyframes EiJqFgVJ_draw_6{25%{stroke-dashoffset: 33}52.77777777777778%{ stroke-dashoffset: 0;}100%{ stroke-dashoffset: 0;}}</style></svg>