<svg xmlns="http://www.w3.org/2000/svg" viewBox="0 0 256 256" style=""><path width="256" height="256" fill="none" d="M0 0 L256 0 L256 256 L0 256 Z" class="PzUvLDCT_0"></path><path d="M128,189.09l54.72,33.65a8.4,8.4,0,0,0,12.52-9.17l-14.88-62.79,48.7-42A8.46,8.46,0,0,0,224.27,94L160.36,88.8,135.74,29.2a8.36,8.36,0,0,0-15.48,0L95.64,88.8,31.73,94a8.46,8.46,0,0,0-4.79,14.83l48.7,42L60.76,213.57a8.4,8.4,0,0,0,12.52,9.17Z" opacity="0.2" class="PzUvLDCT_1"></path><path d="M128,189.09l54.72,33.65a8.4,8.4,0,0,0,12.52-9.17l-14.88-62.79,48.7-42A8.46,8.46,0,0,0,224.27,94L160.36,88.8,135.74,29.2a8.36,8.36,0,0,0-15.48,0L95.64,88.8,31.73,94a8.46,8.46,0,0,0-4.79,14.83l48.7,42L60.76,213.57a8.4,8.4,0,0,0,12.52,9.17Z" fill="none" stroke="currentColor" stroke-linecap="round" stroke-linejoin="round" stroke-width="16" class="PzUvLDCT_2"></path><style data-made-with="vivus-instant">.PzUvLDCT_0{stroke-dasharray:1024 1026;stroke-dashoffset:1025;animation:PzUvLDCT_draw_0 7200ms linear 0ms infinite,PzUvLDCT_fade 7200ms linear 0ms infinite;}.PzUvLDCT_1{stroke-dasharray:743 745;stroke-dashoffset:744;animation:PzUvLDCT_draw_1 7200ms linear 0ms infinite,PzUvLDCT_fade 7200ms linear 0ms infinite;}.PzUvLDCT_2{stroke-dasharray:743 745;stroke-dashoffset:744;animation:PzUvLDCT_draw_2 7200ms linear 0ms infinite,PzUvLDCT_fade 7200ms linear 0ms infinite;}@keyframes PzUvLDCT_draw{100%{stroke-dashoffset:0;}}@keyframes PzUvLDCT_fade{0%{stroke-opacity:1;}94.44444444444444%{stroke-opacity:1;}100%{stroke-opacity:0;}}@keyframes PzUvLDCT_draw_0{11.11111111111111%{stroke-dashoffset: 1025}38.88888888888889%{ stroke-dashoffset: 0;}100%{ stroke-dashoffset: 0;}}@keyframes PzUvLDCT_draw_1{18.055555555555554%{stroke-dashoffset: 744}45.83333333333333%{ stroke-dashoffset: 0;}100%{ stroke-dashoffset: 0;}}@keyframes PzUvLDCT_draw_2{25%{stroke-dashoffset: 744}52.77777777777778%{ stroke-dashoffset: 0;}100%{ stroke-dashoffset: 0;}}</style></svg>