<svg xmlns="http://www.w3.org/2000/svg" viewBox="0 0 256 256" style=""><path width="256" height="256" fill="none" d="M0 0 L256 0 L256 256 L0 256 Z" class="XdSiKrKa_0"></path><path d="M42.34,138.34A8,8,0,0,1,40,132.69V40h92.69a8,8,0,0,1,5.65,2.34l99.32,99.32a8,8,0,0,1,0,11.31L153,237.66a8,8,0,0,1-11.31,0Z" opacity="0.2" class="XdSiKrKa_1"></path><path d="M42.34,138.34A8,8,0,0,1,40,132.69V40h92.69a8,8,0,0,1,5.65,2.34l99.32,99.32a8,8,0,0,1,0,11.31L153,237.66a8,8,0,0,1-11.31,0Z" fill="none" stroke="currentColor" stroke-linecap="round" stroke-linejoin="round" stroke-width="16" class="XdSiKrKa_2"></path><path d="M72,84A12,12 0,1,1 96,84A12,12 0,1,1 72,84" class="XdSiKrKa_3"></path><style data-made-with="vivus-instant">.XdSiKrKa_0{stroke-dasharray:1024 1026;stroke-dashoffset:1025;animation:XdSiKrKa_draw_0 7200ms linear 0ms infinite,XdSiKrKa_fade 7200ms linear 0ms infinite;}.XdSiKrKa_1{stroke-dasharray:624 626;stroke-dashoffset:625;animation:XdSiKrKa_draw_1 7200ms linear 0ms infinite,XdSiKrKa_fade 7200ms linear 0ms infinite;}.XdSiKrKa_2{stroke-dasharray:624 626;stroke-dashoffset:625;animation:XdSiKrKa_draw_2 7200ms linear 0ms infinite,XdSiKrKa_fade 7200ms linear 0ms infinite;}.XdSiKrKa_3{stroke-dasharray:76 78;stroke-dashoffset:77;animation:XdSiKrKa_draw_3 7200ms linear 0ms infinite,XdSiKrKa_fade 7200ms linear 0ms infinite;}@keyframes XdSiKrKa_draw{100%{stroke-dashoffset:0;}}@keyframes XdSiKrKa_fade{0%{stroke-opacity:1;}94.44444444444444%{stroke-opacity:1;}100%{stroke-opacity:0;}}@keyframes XdSiKrKa_draw_0{11.11111111111111%{stroke-dashoffset: 1025}38.88888888888889%{ stroke-dashoffset: 0;}100%{ stroke-dashoffset: 0;}}@keyframes XdSiKrKa_draw_1{15.740740740740739%{stroke-dashoffset: 625}43.51851851851851%{ stroke-dashoffset: 0;}100%{ stroke-dashoffset: 0;}}@keyframes XdSiKrKa_draw_2{20.37037037037037%{stroke-dashoffset: 625}48.148148148148145%{ stroke-dashoffset: 0;}100%{ stroke-dashoffset: 0;}}@keyframes XdSiKrKa_draw_3{25%{stroke-dashoffset: 77}52.77777777777778%{ stroke-dashoffset: 0;}100%{ stroke-dashoffset: 0;}}</style></svg>