<svg xmlns="http://www.w3.org/2000/svg" viewBox="0 0 256 256" style=""><path width="256" height="256" fill="none" d="M0 0 L256 0 L256 256 L0 256 Z" class="cRoGfyqk_0"></path><path width="192" height="160" opacity="0.2" d="M 40,48 L 216,48 A 8,8,0,0,1,224,56 L 224,200 A 8,8,0,0,1,216,208 L 40,208 A 8,8,0,0,1,32,200 L 32,56 A 8,8,0,0,1,40,48" class="cRoGfyqk_1"></path><path fill="none" stroke="currentColor" stroke-linecap="round" stroke-linejoin="round" stroke-width="16" d="M80,96L120,128L80,160" class="cRoGfyqk_2"></path><path fill="none" stroke="currentColor" stroke-linecap="round" stroke-linejoin="round" stroke-width="16" d="M136,160L176,160" class="cRoGfyqk_3"></path><path width="192" height="160" fill="none" stroke="currentColor" stroke-linecap="round" stroke-linejoin="round" stroke-width="16" d="M 40,48 L 216,48 A 8,8,0,0,1,224,56 L 224,200 A 8,8,0,0,1,216,208 L 40,208 A 8,8,0,0,1,32,200 L 32,56 A 8,8,0,0,1,40,48" class="cRoGfyqk_4"></path><style data-made-with="vivus-instant">.cRoGfyqk_0{stroke-dasharray:1024 1026;stroke-dashoffset:1025;animation:cRoGfyqk_draw_0 7200ms linear 0ms infinite,cRoGfyqk_fade 7200ms linear 0ms infinite;}.cRoGfyqk_1{stroke-dasharray:691 693;stroke-dashoffset:692;animation:cRoGfyqk_draw_1 7200ms linear 0ms infinite,cRoGfyqk_fade 7200ms linear 0ms infinite;}.cRoGfyqk_2{stroke-dasharray:103 105;stroke-dashoffset:104;animation:cRoGfyqk_draw_2 7200ms linear 0ms infinite,cRoGfyqk_fade 7200ms linear 0ms infinite;}.cRoGfyqk_3{stroke-dasharray:40 42;stroke-dashoffset:41;animation:cRoGfyqk_draw_3 7200ms linear 0ms infinite,cRoGfyqk_fade 7200ms linear 0ms infinite;}.cRoGfyqk_4{stroke-dasharray:691 693;stroke-dashoffset:692;animation:cRoGfyqk_draw_4 7200ms linear 0ms infinite,cRoGfyqk_fade 7200ms linear 0ms infinite;}@keyframes cRoGfyqk_draw{100%{stroke-dashoffset:0;}}@keyframes cRoGfyqk_fade{0%{stroke-opacity:1;}94.44444444444444%{stroke-opacity:1;}100%{stroke-opacity:0;}}@keyframes cRoGfyqk_draw_0{11.11111111111111%{stroke-dashoffset: 1025}38.88888888888889%{ stroke-dashoffset: 0;}100%{ stroke-dashoffset: 0;}}@keyframes cRoGfyqk_draw_1{14.583333333333334%{stroke-dashoffset: 692}42.36111111111111%{ stroke-dashoffset: 0;}100%{ stroke-dashoffset: 0;}}@keyframes cRoGfyqk_draw_2{18.055555555555554%{stroke-dashoffset: 104}45.83333333333333%{ stroke-dashoffset: 0;}100%{ stroke-dashoffset: 0;}}@keyframes cRoGfyqk_draw_3{21.52777777777778%{stroke-dashoffset: 41}49.30555555555556%{ stroke-dashoffset: 0;}100%{ stroke-dashoffset: 0;}}@keyframes cRoGfyqk_draw_4{25%{stroke-dashoffset: 692}52.77777777777778%{ stroke-dashoffset: 0;}100%{ stroke-dashoffset: 0;}}</style></svg>