<svg xmlns="http://www.w3.org/2000/svg" viewBox="0 0 256 256" style=""><path width="256" height="256" fill="none" d="M0 0 L256 0 L256 256 L0 256 Z" class="BvVCoEWQ_0"></path><path d="M24,120H232v72a8,8,0,0,1-8,8H32a8,8,0,0,1-8-8Z" opacity="0.2" class="BvVCoEWQ_1"></path><path width="208" height="128" fill="none" stroke="currentColor" stroke-linecap="round" stroke-linejoin="round" stroke-width="16" d="M 32,72 L 224,72 A 8,8,0,0,1,232,80 L 232,192 A 8,8,0,0,1,224,200 L 32,200 A 8,8,0,0,1,24,192 L 24,80 A 8,8,0,0,1,32,72" class="BvVCoEWQ_2"></path><path fill="none" stroke="currentColor" stroke-linecap="round" stroke-linejoin="round" stroke-width="16" d="M24,120L232,120" class="BvVCoEWQ_3"></path><path fill="none" stroke="currentColor" stroke-linecap="round" stroke-linejoin="round" stroke-width="16" d="M72,104L72,136" class="BvVCoEWQ_4"></path><path fill="none" stroke="currentColor" stroke-linecap="round" stroke-linejoin="round" stroke-width="16" d="M184,104L184,136" class="BvVCoEWQ_5"></path><path d="M168,72V56a16,16,0,0,0-16-16H104A16,16,0,0,0,88,56V72" fill="none" stroke="currentColor" stroke-linecap="round" stroke-linejoin="round" stroke-width="16" class="BvVCoEWQ_6"></path><style data-made-with="vivus-instant">.BvVCoEWQ_0{stroke-dasharray:1024 1026;stroke-dashoffset:1025;animation:BvVCoEWQ_draw_0 7200ms linear 0ms infinite,BvVCoEWQ_fade 7200ms linear 0ms infinite;}.BvVCoEWQ_1{stroke-dasharray:570 572;stroke-dashoffset:571;animation:BvVCoEWQ_draw_1 7200ms linear 0ms infinite,BvVCoEWQ_fade 7200ms linear 0ms infinite;}.BvVCoEWQ_2{stroke-dasharray:659 661;stroke-dashoffset:660;animation:BvVCoEWQ_draw_2 7200ms linear 0ms infinite,BvVCoEWQ_fade 7200ms linear 0ms infinite;}.BvVCoEWQ_3{stroke-dasharray:208 210;stroke-dashoffset:209;animation:BvVCoEWQ_draw_3 7200ms linear 0ms infinite,BvVCoEWQ_fade 7200ms linear 0ms infinite;}.BvVCoEWQ_4{stroke-dasharray:32 34;stroke-dashoffset:33;animation:BvVCoEWQ_draw_4 7200ms linear 0ms infinite,BvVCoEWQ_fade 7200ms linear 0ms infinite;}.BvVCoEWQ_5{stroke-dasharray:32 34;stroke-dashoffset:33;animation:BvVCoEWQ_draw_5 7200ms linear 0ms infinite,BvVCoEWQ_fade 7200ms linear 0ms infinite;}.BvVCoEWQ_6{stroke-dasharray:131 133;stroke-dashoffset:132;animation:BvVCoEWQ_draw_6 7200ms linear 0ms infinite,BvVCoEWQ_fade 7200ms linear 0ms infinite;}@keyframes BvVCoEWQ_draw{100%{stroke-dashoffset:0;}}@keyframes BvVCoEWQ_fade{0%{stroke-opacity:1;}94.44444444444444%{stroke-opacity:1;}100%{stroke-opacity:0;}}@keyframes BvVCoEWQ_draw_0{11.11111111111111%{stroke-dashoffset: 1025}38.88888888888889%{ stroke-dashoffset: 0;}100%{ stroke-dashoffset: 0;}}@keyframes BvVCoEWQ_draw_1{13.425925925925924%{stroke-dashoffset: 571}41.2037037037037%{ stroke-dashoffset: 0;}100%{ stroke-dashoffset: 0;}}@keyframes BvVCoEWQ_draw_2{15.740740740740739%{stroke-dashoffset: 660}43.51851851851851%{ stroke-dashoffset: 0;}100%{ stroke-dashoffset: 0;}}@keyframes BvVCoEWQ_draw_3{18.055555555555554%{stroke-dashoffset: 209}45.83333333333333%{ stroke-dashoffset: 0;}100%{ stroke-dashoffset: 0;}}@keyframes BvVCoEWQ_draw_4{20.37037037037037%{stroke-dashoffset: 33}48.148148148148145%{ stroke-dashoffset: 0;}100%{ stroke-dashoffset: 0;}}@keyframes BvVCoEWQ_draw_5{22.685185185185183%{stroke-dashoffset: 33}50.462962962962955%{ stroke-dashoffset: 0;}100%{ stroke-dashoffset: 0;}}@keyframes BvVCoEWQ_draw_6{25%{stroke-dashoffset: 132}52.77777777777778%{ stroke-dashoffset: 0;}100%{ stroke-dashoffset: 0;}}</style></svg>