<svg xmlns="http://www.w3.org/2000/svg" viewBox="0 0 256 256" style=""><path width="256" height="256" fill="none" d="M0 0 L256 0 L256 256 L0 256 Z" class="MqbGjChn_0"></path><path opacity="0.2" d="M48,168A32,32 0,1,1 112,168A32,32 0,1,1 48,168" class="MqbGjChn_1"></path><path opacity="0.2" d="M48,64A32,32 0,1,1 112,64A32,32 0,1,1 48,64" class="MqbGjChn_2"></path><path opacity="0.2" d="M144,168A32,32 0,1,1 208,168A32,32 0,1,1 144,168" class="MqbGjChn_3"></path><path opacity="0.2" d="M144,64A32,32 0,1,1 208,64A32,32 0,1,1 144,64" class="MqbGjChn_4"></path><path d="M32,224a60,60,0,0,1,96,0,60,60,0,0,1,96,0" fill="none" stroke="currentColor" stroke-linecap="round" stroke-linejoin="round" stroke-width="16" class="MqbGjChn_5"></path><path d="M32,120a60,60,0,0,1,96,0h0a60,60,0,0,1,96,0" fill="none" stroke="currentColor" stroke-linecap="round" stroke-linejoin="round" stroke-width="16" class="MqbGjChn_6"></path><path fill="none" stroke="currentColor" stroke-linecap="round" stroke-linejoin="round" stroke-width="16" d="M48,168A32,32 0,1,1 112,168A32,32 0,1,1 48,168" class="MqbGjChn_7"></path><path fill="none" stroke="currentColor" stroke-linecap="round" stroke-linejoin="round" stroke-width="16" d="M48,64A32,32 0,1,1 112,64A32,32 0,1,1 48,64" class="MqbGjChn_8"></path><path fill="none" stroke="currentColor" stroke-linecap="round" stroke-linejoin="round" stroke-width="16" d="M144,168A32,32 0,1,1 208,168A32,32 0,1,1 144,168" class="MqbGjChn_9"></path><path fill="none" stroke="currentColor" stroke-linecap="round" stroke-linejoin="round" stroke-width="16" d="M144,64A32,32 0,1,1 208,64A32,32 0,1,1 144,64" class="MqbGjChn_10"></path><style data-made-with="vivus-instant">.MqbGjChn_0{stroke-dasharray:1024 1026;stroke-dashoffset:1025;animation:MqbGjChn_draw_0 7200ms linear 0ms infinite,MqbGjChn_fade 7200ms linear 0ms infinite;}.MqbGjChn_1{stroke-dasharray:202 204;stroke-dashoffset:203;animation:MqbGjChn_draw_1 7200ms linear 0ms infinite,MqbGjChn_fade 7200ms linear 0ms infinite;}.MqbGjChn_2{stroke-dasharray:202 204;stroke-dashoffset:203;animation:MqbGjChn_draw_2 7200ms linear 0ms infinite,MqbGjChn_fade 7200ms linear 0ms infinite;}.MqbGjChn_3{stroke-dasharray:202 204;stroke-dashoffset:203;animation:MqbGjChn_draw_3 7200ms linear 0ms infinite,MqbGjChn_fade 7200ms linear 0ms infinite;}.MqbGjChn_4{stroke-dasharray:202 204;stroke-dashoffset:203;animation:MqbGjChn_draw_4 7200ms linear 0ms infinite,MqbGjChn_fade 7200ms linear 0ms infinite;}.MqbGjChn_5{stroke-dasharray:223 225;stroke-dashoffset:224;animation:MqbGjChn_draw_5 7200ms linear 0ms infinite,MqbGjChn_fade 7200ms linear 0ms infinite;}.MqbGjChn_6{stroke-dasharray:223 225;stroke-dashoffset:224;animation:MqbGjChn_draw_6 7200ms linear 0ms infinite,MqbGjChn_fade 7200ms linear 0ms infinite;}.MqbGjChn_7{stroke-dasharray:202 204;stroke-dashoffset:203;animation:MqbGjChn_draw_7 7200ms linear 0ms infinite,MqbGjChn_fade 7200ms linear 0ms infinite;}.MqbGjChn_8{stroke-dasharray:202 204;stroke-dashoffset:203;animation:MqbGjChn_draw_8 7200ms linear 0ms infinite,MqbGjChn_fade 7200ms linear 0ms infinite;}.MqbGjChn_9{stroke-dasharray:202 204;stroke-dashoffset:203;animation:MqbGjChn_draw_9 7200ms linear 0ms infinite,MqbGjChn_fade 7200ms linear 0ms infinite;}.MqbGjChn_10{stroke-dasharray:202 204;stroke-dashoffset:203;animation:MqbGjChn_draw_10 7200ms linear 0ms infinite,MqbGjChn_fade 7200ms linear 0ms infinite;}@keyframes MqbGjChn_draw{100%{stroke-dashoffset:0;}}@keyframes MqbGjChn_fade{0%{stroke-opacity:1;}94.44444444444444%{stroke-opacity:1;}100%{stroke-opacity:0;}}@keyframes MqbGjChn_draw_0{11.11111111111111%{stroke-dashoffset: 1025}38.88888888888889%{ stroke-dashoffset: 0;}100%{ stroke-dashoffset: 0;}}@keyframes MqbGjChn_draw_1{12.5%{stroke-dashoffset: 203}40.27777777777778%{ stroke-dashoffset: 0;}100%{ stroke-dashoffset: 0;}}@keyframes MqbGjChn_draw_2{13.88888888888889%{stroke-dashoffset: 203}41.66666666666667%{ stroke-dashoffset: 0;}100%{ stroke-dashoffset: 0;}}@keyframes MqbGjChn_draw_3{15.277777777777779%{stroke-dashoffset: 203}43.05555555555556%{ stroke-dashoffset: 0;}100%{ stroke-dashoffset: 0;}}@keyframes MqbGjChn_draw_4{16.666666666666664%{stroke-dashoffset: 203}44.44444444444444%{ stroke-dashoffset: 0;}100%{ stroke-dashoffset: 0;}}@keyframes MqbGjChn_draw_5{18.055555555555554%{stroke-dashoffset: 224}45.83333333333333%{ stroke-dashoffset: 0;}100%{ stroke-dashoffset: 0;}}@keyframes MqbGjChn_draw_6{19.444444444444446%{stroke-dashoffset: 224}47.22222222222222%{ stroke-dashoffset: 0;}100%{ stroke-dashoffset: 0;}}@keyframes MqbGjChn_draw_7{20.833333333333336%{stroke-dashoffset: 203}48.61111111111111%{ stroke-dashoffset: 0;}100%{ stroke-dashoffset: 0;}}@keyframes MqbGjChn_draw_8{22.22222222222222%{stroke-dashoffset: 203}50%{ stroke-dashoffset: 0;}100%{ stroke-dashoffset: 0;}}@keyframes MqbGjChn_draw_9{23.61111111111111%{stroke-dashoffset: 203}51.388888888888886%{ stroke-dashoffset: 0;}100%{ stroke-dashoffset: 0;}}@keyframes MqbGjChn_draw_10{25%{stroke-dashoffset: 203}52.77777777777778%{ stroke-dashoffset: 0;}100%{ stroke-dashoffset: 0;}}</style></svg>