<svg xmlns="http://www.w3.org/2000/svg" viewBox="0 0 256 256" style=""><path width="256" height="256" fill="none" d="M0 0 L256 0 L256 256 L0 256 Z" class="AFTDCxVw_0"></path><path opacity="0.2" d="M88,144A40,40 0,1,1 168,144A40,40 0,1,1 88,144" class="AFTDCxVw_1"></path><path opacity="0.2" d="M32,88A32,32 0,1,1 96,88A32,32 0,1,1 32,88" class="AFTDCxVw_2"></path><path opacity="0.2" d="M160,88A32,32 0,1,1 224,88A32,32 0,1,1 160,88" class="AFTDCxVw_3"></path><path d="M192,120a59.91,59.91,0,0,1,48,24" fill="none" stroke="currentColor" stroke-linecap="round" stroke-linejoin="round" stroke-width="16" class="AFTDCxVw_4"></path><path d="M16,144a59.91,59.91,0,0,1,48-24" fill="none" stroke="currentColor" stroke-linecap="round" stroke-linejoin="round" stroke-width="16" class="AFTDCxVw_5"></path><path fill="none" stroke="currentColor" stroke-linecap="round" stroke-linejoin="round" stroke-width="16" d="M88,144A40,40 0,1,1 168,144A40,40 0,1,1 88,144" class="AFTDCxVw_6"></path><path d="M72,216a65,65,0,0,1,112,0" fill="none" stroke="currentColor" stroke-linecap="round" stroke-linejoin="round" stroke-width="16" class="AFTDCxVw_7"></path><path d="M161,80a32,32,0,1,1,31,40" fill="none" stroke="currentColor" stroke-linecap="round" stroke-linejoin="round" stroke-width="16" class="AFTDCxVw_8"></path><path d="M64,120A32,32,0,1,1,95,80" fill="none" stroke="currentColor" stroke-linecap="round" stroke-linejoin="round" stroke-width="16" class="AFTDCxVw_9"></path><style data-made-with="vivus-instant">.AFTDCxVw_0{stroke-dasharray:1024 1026;stroke-dashoffset:1025;animation:AFTDCxVw_draw_0 7200ms linear 0ms infinite,AFTDCxVw_fade 7200ms linear 0ms infinite;}.AFTDCxVw_1{stroke-dasharray:252 254;stroke-dashoffset:253;animation:AFTDCxVw_draw_1 7200ms linear 0ms infinite,AFTDCxVw_fade 7200ms linear 0ms infinite;}.AFTDCxVw_2{stroke-dasharray:202 204;stroke-dashoffset:203;animation:AFTDCxVw_draw_2 7200ms linear 0ms infinite,AFTDCxVw_fade 7200ms linear 0ms infinite;}.AFTDCxVw_3{stroke-dasharray:202 204;stroke-dashoffset:203;animation:AFTDCxVw_draw_3 7200ms linear 0ms infinite,AFTDCxVw_fade 7200ms linear 0ms infinite;}.AFTDCxVw_4{stroke-dasharray:56 58;stroke-dashoffset:57;animation:AFTDCxVw_draw_4 7200ms linear 0ms infinite,AFTDCxVw_fade 7200ms linear 0ms infinite;}.AFTDCxVw_5{stroke-dasharray:56 58;stroke-dashoffset:57;animation:AFTDCxVw_draw_5 7200ms linear 0ms infinite,AFTDCxVw_fade 7200ms linear 0ms infinite;}.AFTDCxVw_6{stroke-dasharray:252 254;stroke-dashoffset:253;animation:AFTDCxVw_draw_6 7200ms linear 0ms infinite,AFTDCxVw_fade 7200ms linear 0ms infinite;}.AFTDCxVw_7{stroke-dasharray:135 137;stroke-dashoffset:136;animation:AFTDCxVw_draw_7 7200ms linear 0ms infinite,AFTDCxVw_fade 7200ms linear 0ms infinite;}.AFTDCxVw_8{stroke-dasharray:143 145;stroke-dashoffset:144;animation:AFTDCxVw_draw_8 7200ms linear 0ms infinite,AFTDCxVw_fade 7200ms linear 0ms infinite;}.AFTDCxVw_9{stroke-dasharray:143 145;stroke-dashoffset:144;animation:AFTDCxVw_draw_9 7200ms linear 0ms infinite,AFTDCxVw_fade 7200ms linear 0ms infinite;}@keyframes AFTDCxVw_draw{100%{stroke-dashoffset:0;}}@keyframes AFTDCxVw_fade{0%{stroke-opacity:1;}94.44444444444444%{stroke-opacity:1;}100%{stroke-opacity:0;}}@keyframes AFTDCxVw_draw_0{11.11111111111111%{stroke-dashoffset: 1025}38.88888888888889%{ stroke-dashoffset: 0;}100%{ stroke-dashoffset: 0;}}@keyframes AFTDCxVw_draw_1{12.654320987654321%{stroke-dashoffset: 253}40.4320987654321%{ stroke-dashoffset: 0;}100%{ stroke-dashoffset: 0;}}@keyframes AFTDCxVw_draw_2{14.19753086419753%{stroke-dashoffset: 203}41.9753086419753%{ stroke-dashoffset: 0;}100%{ stroke-dashoffset: 0;}}@keyframes AFTDCxVw_draw_3{15.740740740740744%{stroke-dashoffset: 203}43.518518518518526%{ stroke-dashoffset: 0;}100%{ stroke-dashoffset: 0;}}@keyframes AFTDCxVw_draw_4{17.28395061728395%{stroke-dashoffset: 57}45.06172839506173%{ stroke-dashoffset: 0;}100%{ stroke-dashoffset: 0;}}@keyframes AFTDCxVw_draw_5{18.82716049382716%{stroke-dashoffset: 57}46.60493827160494%{ stroke-dashoffset: 0;}100%{ stroke-dashoffset: 0;}}@keyframes AFTDCxVw_draw_6{20.370370370370374%{stroke-dashoffset: 253}48.14814814814815%{ stroke-dashoffset: 0;}100%{ stroke-dashoffset: 0;}}@keyframes AFTDCxVw_draw_7{21.91358024691358%{stroke-dashoffset: 136}49.691358024691354%{ stroke-dashoffset: 0;}100%{ stroke-dashoffset: 0;}}@keyframes AFTDCxVw_draw_8{23.45679012345679%{stroke-dashoffset: 144}51.23456790123456%{ stroke-dashoffset: 0;}100%{ stroke-dashoffset: 0;}}@keyframes AFTDCxVw_draw_9{25%{stroke-dashoffset: 144}52.77777777777778%{ stroke-dashoffset: 0;}100%{ stroke-dashoffset: 0;}}</style></svg>