<svg xmlns="http://www.w3.org/2000/svg" viewBox="0 0 256 256" style=""><path width="256" height="256" fill="none" d="M0 0 L256 0 L256 256 L0 256 Z" class="MoJJPbpC_0"></path><path width="176" height="128" opacity="0.2" d="M 32,64 L 192,64 A 8,8,0,0,1,200,72 L 200,184 A 8,8,0,0,1,192,192 L 32,192 A 8,8,0,0,1,24,184 L 24,72 A 8,8,0,0,1,32,64" class="MoJJPbpC_1"></path><path width="176" height="128" fill="none" stroke="currentColor" stroke-linecap="round" stroke-linejoin="round" stroke-width="16" d="M 32,64 L 192,64 A 8,8,0,0,1,200,72 L 200,184 A 8,8,0,0,1,192,192 L 32,192 A 8,8,0,0,1,24,184 L 24,72 A 8,8,0,0,1,32,64" class="MoJJPbpC_2"></path><path fill="none" stroke="currentColor" stroke-linecap="round" stroke-linejoin="round" stroke-width="16" d="M200,112L248,80L248,176L200,144" class="MoJJPbpC_3"></path><style data-made-with="vivus-instant">.MoJJPbpC_0{stroke-dasharray:1024 1026;stroke-dashoffset:1025;animation:MoJJPbpC_draw_0 7200ms linear 0ms infinite,MoJJPbpC_fade 7200ms linear 0ms infinite;}.MoJJPbpC_1{stroke-dasharray:595 597;stroke-dashoffset:596;animation:MoJJPbpC_draw_1 7200ms linear 0ms infinite,MoJJPbpC_fade 7200ms linear 0ms infinite;}.MoJJPbpC_2{stroke-dasharray:595 597;stroke-dashoffset:596;animation:MoJJPbpC_draw_2 7200ms linear 0ms infinite,MoJJPbpC_fade 7200ms linear 0ms infinite;}.MoJJPbpC_3{stroke-dasharray:212 214;stroke-dashoffset:213;animation:MoJJPbpC_draw_3 7200ms linear 0ms infinite,MoJJPbpC_fade 7200ms linear 0ms infinite;}@keyframes MoJJPbpC_draw{100%{stroke-dashoffset:0;}}@keyframes MoJJPbpC_fade{0%{stroke-opacity:1;}94.44444444444444%{stroke-opacity:1;}100%{stroke-opacity:0;}}@keyframes MoJJPbpC_draw_0{11.11111111111111%{stroke-dashoffset: 1025}38.88888888888889%{ stroke-dashoffset: 0;}100%{ stroke-dashoffset: 0;}}@keyframes MoJJPbpC_draw_1{15.740740740740739%{stroke-dashoffset: 596}43.51851851851851%{ stroke-dashoffset: 0;}100%{ stroke-dashoffset: 0;}}@keyframes MoJJPbpC_draw_2{20.37037037037037%{stroke-dashoffset: 596}48.148148148148145%{ stroke-dashoffset: 0;}100%{ stroke-dashoffset: 0;}}@keyframes MoJJPbpC_draw_3{25%{stroke-dashoffset: 213}52.77777777777778%{ stroke-dashoffset: 0;}100%{ stroke-dashoffset: 0;}}</style></svg>