<svg xmlns="http://www.w3.org/2000/svg" viewBox="0 0 256 256" style=""><path width="256" height="256" fill="none" d="M0 0 L256 0 L256 256 L0 256 Z" class="GGfOQvBg_0"></path><path d="M142.41,40.22l87.46,151.87C236,202.79,228.08,216,215.46,216H40.54C27.92,216,20,202.79,26.13,192.09L113.59,40.22C119.89,29.26,136.11,29.26,142.41,40.22Z" opacity="0.2" class="GGfOQvBg_1"></path><path d="M142.41,40.22l87.46,151.87C236,202.79,228.08,216,215.46,216H40.54C27.92,216,20,202.79,26.13,192.09L113.59,40.22C119.89,29.26,136.11,29.26,142.41,40.22Z" fill="none" stroke="currentColor" stroke-linecap="round" stroke-linejoin="round" stroke-width="16" class="GGfOQvBg_2"></path><path fill="none" stroke="currentColor" stroke-linecap="round" stroke-linejoin="round" stroke-width="16" d="M128,144L128,104" class="GGfOQvBg_3"></path><path d="M116,180A12,12 0,1,1 140,180A12,12 0,1,1 116,180" class="GGfOQvBg_4"></path><style data-made-with="vivus-instant">.GGfOQvBg_0{stroke-dasharray:1024 1026;stroke-dashoffset:1025;animation:GGfOQvBg_draw_0 7200ms linear 0ms infinite,GGfOQvBg_fade 7200ms linear 0ms infinite;}.GGfOQvBg_1{stroke-dasharray:628 630;stroke-dashoffset:629;animation:GGfOQvBg_draw_1 7200ms linear 0ms infinite,GGfOQvBg_fade 7200ms linear 0ms infinite;}.GGfOQvBg_2{stroke-dasharray:628 630;stroke-dashoffset:629;animation:GGfOQvBg_draw_2 7200ms linear 0ms infinite,GGfOQvBg_fade 7200ms linear 0ms infinite;}.GGfOQvBg_3{stroke-dasharray:40 42;stroke-dashoffset:41;animation:GGfOQvBg_draw_3 7200ms linear 0ms infinite,GGfOQvBg_fade 7200ms linear 0ms infinite;}.GGfOQvBg_4{stroke-dasharray:76 78;stroke-dashoffset:77;animation:GGfOQvBg_draw_4 7200ms linear 0ms infinite,GGfOQvBg_fade 7200ms linear 0ms infinite;}@keyframes GGfOQvBg_draw{100%{stroke-dashoffset:0;}}@keyframes GGfOQvBg_fade{0%{stroke-opacity:1;}94.44444444444444%{stroke-opacity:1;}100%{stroke-opacity:0;}}@keyframes GGfOQvBg_draw_0{11.11111111111111%{stroke-dashoffset: 1025}38.88888888888889%{ stroke-dashoffset: 0;}100%{ stroke-dashoffset: 0;}}@keyframes GGfOQvBg_draw_1{14.583333333333334%{stroke-dashoffset: 629}42.36111111111111%{ stroke-dashoffset: 0;}100%{ stroke-dashoffset: 0;}}@keyframes GGfOQvBg_draw_2{18.055555555555554%{stroke-dashoffset: 629}45.83333333333333%{ stroke-dashoffset: 0;}100%{ stroke-dashoffset: 0;}}@keyframes GGfOQvBg_draw_3{21.52777777777778%{stroke-dashoffset: 41}49.30555555555556%{ stroke-dashoffset: 0;}100%{ stroke-dashoffset: 0;}}@keyframes GGfOQvBg_draw_4{25%{stroke-dashoffset: 77}52.77777777777778%{ stroke-dashoffset: 0;}100%{ stroke-dashoffset: 0;}}</style></svg>