<svg xmlns="http://www.w3.org/2000/svg" viewBox="0 0 256 256" style=""><path width="256" height="256" fill="none" d="M0 0 L256 0 L256 256 L0 256 Z" class="mMDyCYzH_0"></path><path opacity="0.2" d="M80,48A24,24 0,1,1 128,48A24,24 0,1,1 80,48" class="mMDyCYzH_1"></path><path fill="none" stroke="currentColor" stroke-linecap="round" stroke-linejoin="round" stroke-width="16" d="M104,72L104,136L192,136L224,200L248,192" class="mMDyCYzH_2"></path><path fill="none" stroke="currentColor" stroke-linecap="round" stroke-linejoin="round" stroke-width="16" d="M80,48A24,24 0,1,1 128,48A24,24 0,1,1 80,48" class="mMDyCYzH_3"></path><path d="M168,96H112a64,64,0,0,0,0,128c29.82,0,56.9-20.4,64-48" fill="none" stroke="currentColor" stroke-linecap="round" stroke-linejoin="round" stroke-width="16" class="mMDyCYzH_4"></path><style data-made-with="vivus-instant">.mMDyCYzH_0{stroke-dasharray:1024 1026;stroke-dashoffset:1025;animation:mMDyCYzH_draw_0 7200ms linear 0ms infinite,mMDyCYzH_fade 7200ms linear 0ms infinite;}.mMDyCYzH_1{stroke-dasharray:151 153;stroke-dashoffset:152;animation:mMDyCYzH_draw_1 7200ms linear 0ms infinite,mMDyCYzH_fade 7200ms linear 0ms infinite;}.mMDyCYzH_2{stroke-dasharray:249 251;stroke-dashoffset:250;animation:mMDyCYzH_draw_2 7200ms linear 0ms infinite,mMDyCYzH_fade 7200ms linear 0ms infinite;}.mMDyCYzH_3{stroke-dasharray:151 153;stroke-dashoffset:152;animation:mMDyCYzH_draw_3 7200ms linear 0ms infinite,mMDyCYzH_fade 7200ms linear 0ms infinite;}.mMDyCYzH_4{stroke-dasharray:343 345;stroke-dashoffset:344;animation:mMDyCYzH_draw_4 7200ms linear 0ms infinite,mMDyCYzH_fade 7200ms linear 0ms infinite;}@keyframes mMDyCYzH_draw{100%{stroke-dashoffset:0;}}@keyframes mMDyCYzH_fade{0%{stroke-opacity:1;}94.44444444444444%{stroke-opacity:1;}100%{stroke-opacity:0;}}@keyframes mMDyCYzH_draw_0{11.11111111111111%{stroke-dashoffset: 1025}38.88888888888889%{ stroke-dashoffset: 0;}100%{ stroke-dashoffset: 0;}}@keyframes mMDyCYzH_draw_1{14.583333333333334%{stroke-dashoffset: 152}42.36111111111111%{ stroke-dashoffset: 0;}100%{ stroke-dashoffset: 0;}}@keyframes mMDyCYzH_draw_2{18.055555555555554%{stroke-dashoffset: 250}45.83333333333333%{ stroke-dashoffset: 0;}100%{ stroke-dashoffset: 0;}}@keyframes mMDyCYzH_draw_3{21.52777777777778%{stroke-dashoffset: 152}49.30555555555556%{ stroke-dashoffset: 0;}100%{ stroke-dashoffset: 0;}}@keyframes mMDyCYzH_draw_4{25%{stroke-dashoffset: 344}52.77777777777778%{ stroke-dashoffset: 0;}100%{ stroke-dashoffset: 0;}}</style></svg>