<svg xmlns="http://www.w3.org/2000/svg" viewBox="0 0 256 256" style=""><path width="256" height="256" fill="none" d="M0 0 L256 0 L256 256 L0 256 Z" class="ZuHXlTGm_0"></path><path d="M104,126.94a64,64,0,0,1,80-90.29L144,80l5.66,26.34L176,112l43.35-40a64,64,0,0,1-90.29,80L73,217A24,24,0,0,1,39,183Z" opacity="0.2" class="ZuHXlTGm_1"></path><path d="M104,126.94a64,64,0,0,1,80-90.29L144,80l5.66,26.34L176,112l43.35-40a64,64,0,0,1-90.29,80L73,217A24,24,0,0,1,39,183Z" fill="none" stroke="currentColor" stroke-linecap="round" stroke-linejoin="round" stroke-width="16" class="ZuHXlTGm_2"></path><style data-made-with="vivus-instant">.ZuHXlTGm_0{stroke-dasharray:1024 1026;stroke-dashoffset:1025;animation:ZuHXlTGm_draw_0 7200ms linear 0ms infinite,ZuHXlTGm_fade 7200ms linear 0ms infinite;}.ZuHXlTGm_1{stroke-dasharray:734 736;stroke-dashoffset:735;animation:ZuHXlTGm_draw_1 7200ms linear 0ms infinite,ZuHXlTGm_fade 7200ms linear 0ms infinite;}.ZuHXlTGm_2{stroke-dasharray:734 736;stroke-dashoffset:735;animation:ZuHXlTGm_draw_2 7200ms linear 0ms infinite,ZuHXlTGm_fade 7200ms linear 0ms infinite;}@keyframes ZuHXlTGm_draw{100%{stroke-dashoffset:0;}}@keyframes ZuHXlTGm_fade{0%{stroke-opacity:1;}94.44444444444444%{stroke-opacity:1;}100%{stroke-opacity:0;}}@keyframes ZuHXlTGm_draw_0{11.11111111111111%{stroke-dashoffset: 1025}38.88888888888889%{ stroke-dashoffset: 0;}100%{ stroke-dashoffset: 0;}}@keyframes ZuHXlTGm_draw_1{18.055555555555554%{stroke-dashoffset: 735}45.83333333333333%{ stroke-dashoffset: 0;}100%{ stroke-dashoffset: 0;}}@keyframes ZuHXlTGm_draw_2{25%{stroke-dashoffset: 735}52.77777777777778%{ stroke-dashoffset: 0;}100%{ stroke-dashoffset: 0;}}</style></svg>